<svg xmlns="http://www.w3.org/2000/svg" width="24" height="24" viewBox="0 0 24 24" fill="none">
  <path d="M12.586 2.586C12.211 2.2109 11.7024 2.00011 11.172 2H4C3.46957 2 2.96086 2.21071 2.58579 2.58579C2.21071 2.96086 2 3.46957 2 4V11.172C2.00011 11.7024 2.2109 12.211 2.586 12.586L11.29 21.29C11.7445 21.7416 12.3592 21.9951 13 21.9951C13.6408 21.9951 14.2555 21.7416 14.71 21.29L21.29 14.71C21.7416 14.2555 21.9951 13.6408 21.9951 13C21.9951 12.3592 21.7416 11.7445 21.29 11.29L12.586 2.586Z" stroke="#99A1AF" stroke-width="2" stroke-linecap="round" stroke-linejoin="round"/>
  <path d="M7.8 9.6C8.79411 9.6 9.6 8.79411 9.6 7.8C9.6 6.80589 8.79411 6 7.8 6C6.80589 6 6 6.80589 6 7.8C6 8.79411 6.80589 9.6 7.8 9.6Z" fill="#99A1AF"/>
</svg>
