<svg width="48" height="48" viewBox="0 0 48 48" fill="none" xmlns="http://www.w3.org/2000/svg">
<rect width="48" height="48" rx="12" fill="#DBEAFE"/>
<g opacity="0.9">
<path d="M17.35 27.1145C19.66 27.1145 21.55 25.193 21.55 22.862C21.55 21.644 20.9515 20.489 19.7545 19.5125C18.5575 18.536 17.6545 17.087 17.35 15.5645C17.0455 17.087 16.153 18.5465 14.9455 19.5125C13.738 20.4785 13.15 21.6545 13.15 22.862C13.15 25.193 15.04 27.1145 17.35 27.1145Z" stroke="#2482CD" stroke-width="1.89" stroke-linecap="round" stroke-linejoin="round"/>
<path d="M23.1879 16.9299C23.9101 15.7761 24.422 14.5034 24.6999 13.1709C25.2249 15.7959 26.7999 18.3159 28.8999 19.9959C30.9999 21.6759 32.0499 23.6709 32.0499 25.7709C32.0559 27.2223 31.6308 28.6428 30.8286 29.8523C30.0263 31.0619 28.8829 32.006 27.5435 32.5649C26.204 33.1239 24.7287 33.2725 23.3047 32.992C21.8806 32.7116 20.5719 32.0146 19.5444 30.9894" stroke="#2482CD" stroke-width="1.89" stroke-linecap="round" stroke-linejoin="round"/>
</g>
</svg>
