<svg width="32" height="32" viewBox="133 19 32 32" fill="none" xmlns="http://www.w3.org/2000/svg">
<path d="M153.333 48V37.3333C153.333 36.9797 153.193 36.6406 152.943 36.3905C152.693 36.1405 152.354 36 152 36H146.667C146.313 36 145.974 36.1405 145.724 36.3905C145.474 36.6406 145.333 36.9797 145.333 37.3333V48" stroke="#2482CD" stroke-width="2.66667" stroke-linecap="round" stroke-linejoin="round"/>
<path d="M137.333 33.3335C137.333 32.9455 137.418 32.5623 137.581 32.2104C137.744 31.8585 137.982 31.5465 138.279 31.2961L147.612 23.2975C148.093 22.8907 148.703 22.6675 149.333 22.6675C149.963 22.6675 150.573 22.8907 151.055 23.2975L160.388 31.2961C160.684 31.5465 160.922 31.8585 161.086 32.2104C161.249 32.5623 161.333 32.9455 161.333 33.3335V45.3335C161.333 46.0407 161.052 46.719 160.552 47.2191C160.052 47.7192 159.374 48.0001 158.667 48.0001H140C139.293 48.0001 138.614 47.7192 138.114 47.2191C137.614 46.719 137.333 46.0407 137.333 45.3335V33.3335Z" stroke="#2482CD" stroke-width="2.66667" stroke-linecap="round" stroke-linejoin="round"/>
</svg>
