<svg width="48" height="48" viewBox="0 0 48 48" fill="none" xmlns="http://www.w3.org/2000/svg">
<rect width="48" height="48" rx="12" fill="#D4EAFB"/>
<path d="M27.6 16.4001C27.3557 16.6493 27.2189 16.9844 27.2189 17.3334C27.2189 17.6824 27.3557 18.0175 27.6 18.2667L29.7333 20.4001C29.9826 20.6444 30.3177 20.7812 30.6667 20.7812C31.0157 20.7812 31.3508 20.6444 31.6 20.4001L36.6267 15.3734C37.2971 16.855 37.5001 18.5057 37.2086 20.1056C36.9171 21.7055 36.145 23.1785 34.995 24.3284C33.8451 25.4783 32.3721 26.2505 30.7722 26.542C29.1723 26.8335 27.5216 26.6305 26.04 25.9601L16.8267 35.1734C16.2962 35.7038 15.5768 36.0018 14.8267 36.0018C14.0765 36.0018 13.3571 35.7038 12.8267 35.1734C12.2962 34.643 11.9982 33.9235 11.9982 33.1734C11.9982 32.4232 12.2962 31.7038 12.8267 31.1734L22.04 21.9601C21.3696 20.4785 21.1666 18.8277 21.4581 17.2279C21.7496 15.628 22.5217 14.1549 23.6716 13.005C24.8215 11.8551 26.2946 11.0829 27.8945 10.7914C29.4944 10.4999 31.1451 10.7029 32.6267 11.3734L27.6133 16.3867L27.6 16.4001Z" stroke="#2482CD" stroke-width="2" stroke-linecap="round" stroke-linejoin="round"/>
</svg>
