<svg width="110" height="40" viewBox="0 0 110 40" fill="none" xmlns="http://www.w3.org/2000/svg">
<g clip-path="url(#clip0_2025_835)">
<mask id="mask0_2025_835" style="mask-type:luminance" maskUnits="userSpaceOnUse" x="0" y="0" width="110" height="40">
<path d="M110 0H0V40H110V0Z" fill="white"/>
</mask>
<g mask="url(#mask0_2025_835)">
<path d="M26.9395 19.9989C28.0677 19.4428 28.9741 18.5207 29.5108 17.3832C30.0475 16.2457 30.1829 14.9599 29.8948 13.7355C29.6067 12.5112 28.9122 11.4206 27.9246 10.6417C26.937 9.86285 25.7146 9.44166 24.4569 9.44689C23.5124 9.43722 22.5814 9.67228 21.7548 10.1292C20.9281 10.5861 20.2338 11.2493 19.7395 12.0542C19.261 11.1894 18.5596 10.4685 17.7081 9.96646C16.8567 9.46447 15.8863 9.19971 14.8979 9.19971C13.9094 9.19971 12.9391 9.46447 12.0876 9.96646C11.2362 10.4685 10.5347 11.1894 10.0562 12.0542C9.62648 11.2478 8.98086 10.5768 8.19155 10.1163C7.40224 9.65582 6.50038 9.42405 5.58686 9.44689C4.85234 9.44381 4.12449 9.5862 3.44529 9.86587C2.76609 10.1455 2.14899 10.5569 1.62961 11.0763C1.11022 11.5957 0.698828 12.2128 0.419165 12.892C0.139502 13.5712 -0.00289391 14.299 0.00019326 15.0336C-0.0156021 16.0722 0.268849 17.0932 0.819365 17.974C1.36988 18.8549 2.16304 19.558 3.10353 19.9989C1.97495 20.5548 1.06816 21.4769 0.531179 22.6147C-0.00579894 23.7524 -0.141249 25.0386 0.14694 26.2632C0.435129 27.4878 1.12994 28.5786 2.11794 29.3575C3.10594 30.1363 4.32879 30.5572 5.58686 30.5516C6.53136 30.5612 7.46228 30.3262 8.28896 29.8693C9.11564 29.4123 9.80992 28.7491 10.3042 27.9442C10.7827 28.8091 11.4842 29.53 12.3356 30.032C13.1871 30.534 14.1574 30.7987 15.1459 30.7987C16.1343 30.7987 17.1047 30.534 17.9561 30.032C18.8076 29.53 19.509 28.8091 19.9875 27.9442C20.5016 28.7306 21.2002 29.3793 22.0224 29.8337C22.8446 30.2882 23.7655 30.5346 24.7049 30.5516C25.4394 30.5546 26.1672 30.4123 26.8464 30.1326C27.5256 29.8529 28.1427 29.4415 28.6621 28.9221C29.1815 28.4028 29.5929 27.7857 29.8726 27.1065C30.1522 26.4273 30.2946 25.6994 30.2915 24.9649C30.2336 23.9115 29.8913 22.8936 29.3011 22.0192C28.7109 21.1448 27.8948 20.4466 26.9395 19.9989Z" fill="#DA3B15"/>
<path d="M16.6356 14.6618V25.0898C16.6284 25.5157 16.4561 25.9222 16.155 26.2236C15.8539 26.5249 15.4475 26.6976 15.0216 26.7051C14.7804 26.707 14.5421 26.6517 14.3264 26.5438C14.1106 26.436 13.9235 26.2785 13.7803 26.0844L7.07626 18.6344V25.2138C7.06801 25.6034 6.90745 25.9743 6.62898 26.2469C6.35051 26.5196 5.97631 26.6723 5.58659 26.6723C5.19688 26.6723 4.82267 26.5196 4.5442 26.2469C4.26573 25.9743 4.10517 25.6034 4.09692 25.2138V14.7858C4.10446 14.3601 4.27692 13.9539 4.57799 13.6528C4.87905 13.3518 5.28522 13.1793 5.71092 13.1718C5.95214 13.1699 6.19037 13.2252 6.40612 13.333C6.62188 13.4409 6.80903 13.5983 6.95226 13.7924L13.5316 21.3651V14.6618C13.5366 14.2682 13.6952 13.8921 13.9735 13.6137C14.2519 13.3354 14.628 13.1768 15.0216 13.1718C15.2258 13.1618 15.43 13.1925 15.6223 13.2623C15.8145 13.3321 15.9909 13.4395 16.1411 13.5782C16.2914 13.7169 16.4125 13.8842 16.4974 14.0702C16.5823 14.2563 16.6293 14.4574 16.6356 14.6618Z" fill="white"/>
<path d="M99.0676 14.5367H106.764C106.764 14.5367 100.06 23.2267 99.4396 23.9713C98.9001 24.7769 98.6386 25.7367 98.6949 26.7047V27.5713H109.992V25.586H102.047C102.047 25.586 108.751 16.896 109.372 16.1513C109.836 15.4103 110.053 14.541 109.992 13.6687V12.4267H99.0676V14.5367ZM98.2009 12.426H86.2802V14.4127H90.6256V27.448H93.7289V14.5367H98.0742V12.4267L98.2009 12.426ZM81.6869 27.448H84.7902V12.4267H81.6869V27.448ZM73.3696 14.2887C73.7422 14.2887 75.1076 14.2887 75.6042 15.1553C75.8208 15.644 75.9326 16.1725 75.9326 16.707C75.9326 17.2415 75.8208 17.77 75.6042 18.2587C75.4871 18.496 75.3119 18.6999 75.0949 18.8514C74.8779 19.0029 74.6261 19.0971 74.3629 19.1253C73.8293 19.2118 73.2894 19.2533 72.7489 19.2493H72.0036V21.2353H72.6242C73.2166 21.2242 73.7978 21.3973 74.2875 21.7309C74.7772 22.0645 75.1511 22.542 75.3576 23.0973C75.5254 23.7459 75.6088 24.4134 75.6056 25.0833C75.5791 25.9129 75.6206 26.7432 75.7296 27.566H78.9576C78.866 26.5756 78.8246 25.5812 78.8336 24.5867C78.8241 24.0878 78.7827 23.5902 78.7096 23.0967C78.6067 22.4291 78.3016 21.8091 77.8354 21.3203C77.3691 20.8316 76.7642 20.4975 76.1022 20.3633C77.9642 19.9907 78.4609 19.122 78.7096 18.7493C79.0069 18.0834 79.1754 17.3673 79.2062 16.6387C79.2238 16.0463 79.1228 15.4564 78.9093 14.9036C78.6958 14.3507 78.374 13.8461 77.9629 13.4193C76.5976 12.302 73.8662 12.426 73.8662 12.426H67.0382V27.448H70.1416V14.2887H73.3696ZM36.2502 27.448H38.8576V16.2747C38.8576 16.2747 43.4509 24.9647 43.9476 25.958C44.2024 26.4227 44.5808 26.8079 45.041 27.0709C45.5012 27.3339 46.0251 27.4644 46.5549 27.448H49.0369V12.4267H46.4302V23.5993C46.4302 23.5993 41.8369 14.786 41.2162 13.668C40.4716 12.3027 38.6089 12.4267 38.6089 12.4267H36.3742V27.448H36.2502ZM60.4582 25.462C61.1074 24.8394 61.505 24 61.5756 23.1033C61.5756 22.8553 61.6996 21.6133 61.6996 20C61.6996 18.3867 61.5756 17.1447 61.5756 16.772C61.484 15.9422 61.1374 15.1613 60.5836 14.5367C59.8899 14.0563 59.0673 13.7967 58.2236 13.792C58.2236 13.792 56.6096 13.792 55.8649 14.5367C55.5561 14.822 55.3087 15.1674 55.1379 15.5516C54.9671 15.9358 54.8765 16.3509 54.8716 16.7713C54.8716 17.144 54.7476 18.2613 54.7476 19.9993C54.7476 21.6133 54.8716 22.8547 54.8716 23.1027C54.8847 23.5517 54.9908 23.9931 55.1831 24.399C55.3754 24.805 55.6498 25.1667 55.9889 25.4613C56.6548 25.9948 57.496 26.2604 58.3476 26.206C59.1176 26.2187 59.8667 25.9551 60.4582 25.462ZM58.0996 28.0693C57.6029 28.0693 55.1202 28.0693 53.3822 26.828C52.4665 26.0521 51.8146 25.0107 51.5169 23.848C51.3149 22.5756 51.2318 21.2871 51.2689 19.9993C51.2357 18.7528 51.3187 17.5058 51.5169 16.2747C51.7378 15.0804 52.4053 14.015 53.3836 13.2953C55.1169 11.93 58.0996 12.0527 58.0996 12.0527C58.0996 12.0527 61.0789 12.0527 62.8169 13.294C63.7935 14.0145 64.4592 15.0797 64.6789 16.2733C64.8711 17.5051 64.9541 18.7515 64.9269 19.998C64.9523 21.2856 64.8693 22.573 64.6789 23.8467C64.5987 24.4472 64.391 25.0237 64.0699 25.5376C63.7488 26.0514 63.3216 26.4907 62.8169 26.826C61.0789 28.0687 58.5962 28.0687 58.0996 28.0687V28.0693Z" fill="#231815"/>
</g>
</g>
<defs>
<clipPath id="clip0_2025_835">
<rect width="110" height="40" fill="white"/>
</clipPath>
</defs>
</svg>
