<svg width="40" height="40" viewBox="0 0 40 40" fill="none" xmlns="http://www.w3.org/2000/svg">
<g clip-path="url(#clip0_0_18)">
<rect width="40" height="40" fill="#F0F8FF"/>
<path d="M29.6702 32.1124C26.1597 29.816 27.7792 27.858 27.4427 25.6974C27.1042 23.5367 25.4847 22.5391 25.4847 22.5391H21.9801L22.23 32.1124H29.6722H29.6702Z" fill="#416792"/>
<path d="M19.7427 36.8515L27.1849 32.8333C23.4737 32.8668 23.4697 24.9326 23.4697 24.9326H16.0157C16.0157 24.9326 16.0118 32.8668 12.3005 32.8333L19.7427 36.8515Z" fill="#FBDEC1"/>
<path d="M23.5878 26.8158C23.4698 25.7296 23.4698 24.9326 23.4698 24.9326H16.0158C16.0158 24.9326 16.0158 25.7473 15.8918 26.8532C16.9839 27.8253 18.4322 28.4845 19.7191 28.4845C21.0061 28.4845 22.4878 27.8095 23.5898 26.8138L23.5878 26.8158Z" fill="#F8C9A4"/>
<path d="M27.2814 14.3864C27.2814 14.3864 26.5277 20.577 25.3372 22.7554C24.1467 24.9337 21.9585 26.9212 19.7191 26.9212C17.4798 26.9212 15.2916 24.9337 14.1011 22.7554C12.9106 20.577 12.1569 14.3864 12.1569 14.3864C12.1569 14.3864 12.6784 5.65527 19.7211 5.65527C27.3148 5.65527 27.2853 14.3864 27.2853 14.3864H27.2814Z" fill="#FBDEC1"/>
<path d="M26.1754 19.942C28.4207 19.8475 28.9284 17.616 28.4699 16.8801C27.8244 15.8391 26.6674 16.4924 26.6674 16.4924L25.8999 16.7581L25.6815 19.9853L26.1754 19.9439V19.942Z" fill="#FBDEC1"/>
<path d="M26.2384 16.7774C25.4395 9.86255 21.9349 9.22892 21.9349 9.22892C21.9349 9.22892 20.4197 8.27257 18.7411 8.92391C16.9741 9.60674 14.6147 11.4801 13.7685 15.9804C13.7095 16.2972 13.6564 16.6081 13.6072 16.9151L12.7807 16.494C12.7807 16.494 11.7614 15.9194 11.1022 16.7164C11.1061 14.3511 11.3049 12.096 12.1215 10.1498C13.9082 5.89548 19.1406 3.75846 23.0919 5.7538C24.5343 6.03126 26.5218 7.17258 27.793 10.386C28.4443 12.033 28.403 14.3019 28.3459 16.7164C27.6887 15.9174 26.6654 16.492 26.6654 16.492L26.2365 16.7774H26.2384Z" fill="#416792"/>
<path d="M13.2766 19.942C11.0313 19.8475 10.5236 17.616 10.9821 16.8801C11.6276 15.8391 12.7846 16.4924 12.7846 16.4924L13.6111 16.9135L13.7724 19.9833L13.2785 19.942H13.2766Z" fill="#FBDEC1"/>
<path d="M19.9454 39.9996C26.0967 39.9996 31.6518 37.4513 35.6149 33.3564C32.5589 31.4909 27.9688 29.3896 27.9688 29.3896C27.9688 29.3896 20.7424 32.6971 19.6975 32.6971C18.6526 32.6971 11.8984 29.3896 11.8984 29.3896C11.8984 29.3896 7.32201 31.4948 4.27783 33.3603C8.24096 37.4533 13.796 39.9996 19.9434 39.9996H19.9454Z" fill="#7AC28C"/>
</g>
<defs>
<clipPath id="clip0_0_18">
<rect width="40" height="40" rx="20" fill="white"/>
</clipPath>
</defs>
</svg>
