<svg width="18" height="18" viewBox="0 0 18 18" fill="none" xmlns="http://www.w3.org/2000/svg">
<g opacity="0.9" clip-path="url(#clip0_0_22)">
<path d="M6.29997 0.899414H2.70001C1.7059 0.899414 0.900024 1.70529 0.900024 2.69939V6.29936C0.900024 7.29346 1.7059 8.09934 2.70001 8.09934H6.29997C7.29407 8.09934 8.09995 7.29346 8.09995 6.29936V2.69939C8.09995 1.70529 7.29407 0.899414 6.29997 0.899414Z" stroke="#9D9FA3" stroke-width="1.35" stroke-linecap="round" stroke-linejoin="round"/>
<path d="M4.5 8.09961V11.6996C4.5 12.177 4.68964 12.6348 5.0272 12.9723C5.36476 13.3099 5.8226 13.4996 6.29998 13.4996H9.89994" stroke="#9D9FA3" stroke-width="1.35" stroke-linecap="round" stroke-linejoin="round"/>
<path d="M15.3 9.89941H11.7C10.7059 9.89941 9.90002 10.7053 9.90002 11.6994V15.2994C9.90002 16.2935 10.7059 17.0993 11.7 17.0993H15.3C16.2941 17.0993 17.0999 16.2935 17.0999 15.2994V11.6994C17.0999 10.7053 16.2941 9.89941 15.3 9.89941Z" stroke="#9D9FA3" stroke-width="1.35" stroke-linecap="round" stroke-linejoin="round"/>
</g>
<defs>
<clipPath id="clip0_0_22">
<rect width="18" height="18" fill="white"/>
</clipPath>
</defs>
</svg>
