<svg width="40" height="40" viewBox="0 0 40 40" fill="none" xmlns="http://www.w3.org/2000/svg">
<g clip-path="url(#clip0_0_69)">
<rect width="40" height="40" fill="#F0F8FF"/>
<path d="M20.1044 35.4368L27.4456 31.4731C23.7847 31.5061 23.7808 23.6797 23.7808 23.6797H16.428C16.428 23.6797 16.4241 31.5061 12.7632 31.4731L20.1044 35.4368Z" fill="#FBDEC1"/>
<path d="M20.1996 31.1897C17.1559 31.1897 14.0871 29.9727 14.0871 29.9727V39.152C15.9894 39.7033 18.0003 40.0003 20.0812 40.0003C22.162 40.0003 24.206 39.6994 26.1218 39.1384V29.9727C26.1218 29.9727 23.2451 31.1897 20.1996 31.1897Z" fill="white"/>
<path d="M13.561 29.4699C11.7694 30.2192 7.12248 32.1952 4.71942 33.5423C7.44858 36.3278 10.9289 38.3737 14.8325 39.352C14.7742 35.0467 14.4986 31.477 14.3627 29.9571C14.3278 29.565 13.924 29.3185 13.5591 29.4699H13.561Z" fill="#7AC28C"/>
<path d="M35.505 33.4775C33.001 32.1265 28.3113 30.1874 26.5177 29.4594C26.1548 29.3119 25.7549 29.5565 25.72 29.9467C25.5841 31.4646 25.3065 35.0478 25.2463 39.3706C29.2139 38.3923 32.7467 36.3134 35.505 33.4775Z" fill="#7AC28C"/>
<path d="M23.9885 26.2419C23.7828 24.8269 23.7808 23.6797 23.7808 23.6797H16.428C16.428 23.6797 16.428 24.8463 16.2164 26.2749C17.3131 27.0028 18.7728 27.3542 20.0792 27.3542C21.3855 27.3542 22.8821 26.9912 23.9885 26.2419Z" fill="#F8C9A4"/>
<path d="M25.8578 21.2627C33.3116 20.6202 28.8354 12.1047 27.8416 9.31924C26.1645 4.62377 20.1879 2.64775 17.0201 4.98287C15.5973 5.25656 13.1573 6.23292 12.3828 9.55217C11.8063 12.029 6.95558 20.1815 14.3142 21.288L25.8578 21.2608V21.2627Z" fill="#416792"/>
<path d="M26.4517 18.9803C28.6665 18.8871 29.1673 16.6859 28.715 15.96C28.0784 14.9331 26.937 15.5776 26.937 15.5776L26.18 15.8396L25.9645 19.023L26.4517 18.9822V18.9803Z" fill="#FBDEC1"/>
<path d="M13.726 18.9803C11.5113 18.8871 11.0105 16.6859 11.4628 15.96C12.0994 14.9331 13.2408 15.5776 13.2408 15.5776L13.9978 15.8396L14.2133 19.023L13.726 18.9822V18.9803Z" fill="#FBDEC1"/>
<path d="M27.5427 13.5022C27.5427 13.5022 28.453 4.88965 20.0811 4.88965C11.7093 4.88965 12.6196 13.5022 12.6196 13.5022L13.594 18.9819C13.8619 20.0844 14.1803 22.074 14.5374 22.7282C15.7118 24.877 17.8703 25.8669 20.0792 25.8669C22.2882 25.8669 24.4466 24.877 25.621 22.7282C25.9781 22.074 26.2965 20.0825 26.5644 18.978L27.5388 13.5022H27.5427Z" fill="#FBDEC1"/>
<path d="M17.4296 9.17322C17.4296 9.17322 18.1711 8.35214 18.9204 8.96552C19.6696 9.5789 20.4266 11.6267 21.7893 12.2188C24.5146 13.4048 25.9645 13.6455 26.937 15.5768L28.5831 15.4876V14.2433C28.5831 14.2433 28.7112 8.13085 24.5864 5.6948C20.4616 3.25874 17.0181 4.98242 17.0181 4.98242C17.0181 4.98242 12.1266 5.71615 11.9771 13.6222V15.175L13.2388 15.5768C14.1822 15.9049 15.2012 11.9296 16.0068 10.2195C16.7114 8.72288 17.4277 9.17322 17.4277 9.17322H17.4296Z" fill="#416792"/>
</g>
<defs>
<clipPath id="clip0_0_69">
<rect width="40" height="40" rx="20" fill="white"/>
</clipPath>
</defs>
</svg>
