<svg width="16" height="16" viewBox="0 0 16 16" fill="none" xmlns="http://www.w3.org/2000/svg">
<path d="M14.1668 6.00024C14.1668 5.77927 14.0789 5.56716 13.9227 5.41089C13.7664 5.25461 13.5543 5.16675 13.3333 5.16675H11.3333C11.185 5.16675 11.044 5.10103 10.9491 4.98706L9.43245 3.16675H6.5677L5.05061 4.98706C4.95565 5.10089 4.81506 5.1667 4.66682 5.16675H2.66682C2.44581 5.16675 2.23375 5.25461 2.07747 5.41089C1.92119 5.56717 1.83333 5.77923 1.83333 6.00024V12.0002C1.83337 12.2212 1.92128 12.4329 2.07747 12.5891C2.23375 12.7454 2.44581 12.8333 2.66682 12.8333H13.3333C13.5543 12.8333 13.7664 12.7454 13.9227 12.5891C14.0788 12.4329 14.1668 12.2211 14.1668 12.0002V6.00024ZM15.1668 12.0002C15.1668 12.4864 14.9735 12.9529 14.6297 13.2966C14.2859 13.6404 13.8195 13.8333 13.3333 13.8333H2.66682C2.18067 13.8333 1.71424 13.6403 1.37044 13.2966C1.02666 12.9529 0.833371 12.4864 0.833328 12.0002V6.00024C0.833328 5.51401 1.02662 5.04767 1.37044 4.70386C1.71425 4.36004 2.18059 4.16675 2.66682 4.16675H4.43245L5.94905 2.34644L5.98714 2.3064C6.07974 2.21742 6.2035 2.16675 6.33333 2.16675H9.66682L9.722 2.16968C9.84951 2.18387 9.96752 2.24684 10.0506 2.34644L11.5677 4.16675H13.3333C13.8196 4.16675 14.2859 4.36004 14.6297 4.70386C14.9735 5.04767 15.1668 5.51405 15.1668 6.00024V12.0002Z" fill="white"/>
<path d="M9.5 8.66675C9.5 7.83832 8.82843 7.16675 8 7.16675C7.17157 7.16675 6.5 7.83832 6.5 8.66675C6.5 9.49518 7.17157 10.1667 8 10.1667C8.82843 10.1667 9.5 9.49518 9.5 8.66675ZM10.5 8.66675C10.5 10.0475 9.38071 11.1667 8 11.1667C6.61929 11.1667 5.5 10.0475 5.5 8.66675C5.5 7.28604 6.61929 6.16675 8 6.16675C9.38071 6.16675 10.5 7.28604 10.5 8.66675Z" fill="white"/>
</svg>
