<svg width="110" height="40" viewBox="0 0 110 40" fill="none" xmlns="http://www.w3.org/2000/svg">
<g clip-path="url(#clip0_2025_1291)">
<mask id="mask0_2025_1291" style="mask-type:luminance" maskUnits="userSpaceOnUse" x="0" y="0" width="110" height="40">
<path d="M110 0H0V40H110V0Z" fill="white"/>
</mask>
<g mask="url(#mask0_2025_1291)">
<mask id="mask1_2025_1291" style="mask-type:luminance" maskUnits="userSpaceOnUse" x="0" y="0" width="110" height="40">
<path d="M0 0H110V40H0V0Z" fill="white"/>
</mask>
<g mask="url(#mask1_2025_1291)">
<path d="M32.4667 7.3999C30.4 7.3999 28.6667 8.73324 28.6667 10.3332C28.6667 11.9332 30.3333 13.2666 32.4667 13.2666C34.6 13.2666 36.2667 11.9332 36.2667 10.3332C36.2667 8.73324 34.6 7.3999 32.4667 7.3999Z" fill="#DF0024"/>
<path d="M107.133 14.3999C107.067 14.3999 106.933 14.3999 106.867 14.3999L99.2 16.7999C99.0667 16.7999 98.9333 16.9332 98.8 17.0666C98.7333 17.1999 98.6667 17.3332 98.6667 17.5332C98.6667 17.6666 98.6667 17.8666 98.8 17.9999C98.8667 18.1332 99 18.1999 99.2 18.2666C99.6 18.3999 99.9333 18.5999 100.333 18.7999C100.467 18.7999 100.533 18.9332 100.667 19.0666C100.733 19.1999 100.8 19.3332 100.8 19.4666V28.7332C100.8 28.8666 100.8 29.0666 100.667 29.1999C100.6 29.3332 100.467 29.3999 100.267 29.4666C99.8667 29.5999 99.5333 29.7332 99.2 29.9332C99.0667 29.9332 99 30.0666 98.9333 30.1999C98.8667 30.3332 98.8 30.4666 98.8 30.5999C98.8 30.9999 99.1333 30.9999 99.6 30.9999H109.2C109.667 30.9999 110 30.9999 110 30.5999C110 30.4666 110 30.3332 109.867 30.1999C109.8 30.0666 109.667 29.9999 109.6 29.9332C109.267 29.7332 108.867 29.5999 108.533 29.4666C108.4 29.4666 108.267 29.3332 108.133 29.1999C108.067 29.0666 108 28.9332 108 28.7332V15.1999C108 14.9999 107.933 14.7999 107.733 14.6666C107.6 14.5332 107.4 14.4666 107.133 14.4666V14.3999Z" fill="#DF0024"/>
<path d="M104.2 7.3999C102.133 7.3999 100.4 8.73324 100.4 10.3332C100.4 11.9332 102.067 13.2666 104.2 13.2666C106.333 13.2666 108 11.9332 108 10.3332C108 8.73324 106.333 7.3999 104.2 7.3999Z" fill="#DF0024"/>
<path d="M1.13339 8.60013C0.933393 8.60013 0.733393 8.60013 0.60006 8.80013C0.466727 8.93346 0.333393 9.0668 0.333393 9.2668C0.333393 9.4668 0.333393 9.6668 0.466727 9.80013C0.60006 9.93346 0.733393 10.0668 0.933393 10.1335C1.20006 10.2001 1.40006 10.3335 1.60006 10.4001C1.73339 10.4001 1.86673 10.5335 1.93339 10.6668C2.00006 10.8001 2.06673 10.9335 2.06673 11.0668V28.6668C2.06673 28.8001 2.06673 29.0001 1.93339 29.1335C1.86673 29.2668 1.73339 29.3335 1.53339 29.4001C1.13339 29.5335 0.80006 29.6668 0.466727 29.8668C0.333393 29.8668 0.266727 30.0001 0.20006 30.1335C0.133393 30.2668 0.0667267 30.4001 0.0667267 30.5335C0.0667267 30.9335 0.40006 30.9335 0.866727 30.9335H11.6001C12.0667 30.9335 12.4001 30.9335 12.4001 30.5335C12.4001 30.4001 12.4001 30.2668 12.2667 30.1335C12.2001 30.0001 12.0667 29.9335 12.0001 29.8668C11.6667 29.6668 11.2667 29.5335 10.9334 29.4001C10.8001 29.4001 10.6667 29.2668 10.5334 29.1335C10.4667 29.0001 10.4001 28.8668 10.4001 28.6668V23.4001C10.4001 23.2668 10.4001 23.2001 10.5334 23.1335C10.6001 23.0668 10.7334 23.0001 10.8001 23.0001C10.8001 23.0001 10.9334 23.0001 11.0001 23.0001C11.0001 23.0001 11.1334 23.0001 11.1334 23.1335L17.3334 30.4001C17.4667 30.5335 17.6667 30.6668 17.8001 30.7335C18.0001 30.8001 18.2001 30.8668 18.4001 30.8668H48.3334C48.8001 30.8668 49.1334 30.8668 49.1334 30.4001C49.1334 29.9335 49.0001 30.0668 48.7334 29.9335C48.5334 29.8001 48.3334 29.7335 48.2001 29.6001C48.0667 29.5335 47.9334 29.4001 47.8667 29.3335C47.8001 29.2001 47.7334 29.0668 47.8001 28.9335V18.6001C47.8001 18.2668 48.0667 17.9335 48.2667 17.7335C48.5334 17.4668 48.8667 17.3335 49.2001 17.3335C50.8001 17.3335 51.0667 18.8001 51.0667 19.6001V29.0001C51.0667 29.1335 51.0667 29.2668 51.0001 29.4001C50.9334 29.5335 50.8001 29.6001 50.6667 29.6668C50.4667 29.8001 50.3334 29.9335 50.1334 30.0001C49.8667 30.1335 49.7334 30.1335 49.7334 30.4668C49.7334 30.8668 50.0667 30.9335 50.5334 30.9335H69.7334C70.2001 30.9335 70.5334 30.9335 70.5334 30.4668C70.5334 30.0001 70.4001 30.1335 70.1334 30.0001C69.9334 29.8668 69.7334 29.8001 69.6001 29.6668C69.4667 29.6001 69.3334 29.4668 69.2667 29.4001C69.2001 29.2668 69.1334 29.1335 69.2001 29.0001V18.6668C69.2001 18.3335 69.4001 18.0001 69.6667 17.8001C69.9334 17.5335 70.2667 17.4001 70.6001 17.4001C72.2001 17.4001 72.4667 18.8668 72.4667 19.6668V29.0668C72.4667 29.2001 72.4667 29.3335 72.4001 29.4668C72.3334 29.6001 72.2001 29.6668 72.0667 29.7335C71.8667 29.8668 71.7334 30.0001 71.5334 30.0668C71.2667 30.2001 71.1334 30.2001 71.1334 30.5335C71.1334 30.9335 71.4667 31.0001 71.9334 31.0001H80.2667C80.7334 31.0001 81.0667 31.0001 81.0667 30.6001C81.0667 30.4668 81.0667 30.3335 80.9334 30.2001C80.8667 30.0668 80.7334 30.0001 80.6667 29.9335C80.3334 29.7335 79.9334 29.6001 79.6001 29.4668C79.4667 29.4668 79.3334 29.3335 79.2001 29.2001C79.1334 29.0668 79.0667 28.9335 79.0667 28.7335V19.0001C79.0667 16.0668 77.4001 14.5335 74.4001 14.5335C71.4001 14.5335 71.1334 15.1335 70.2001 15.6668C70.0667 15.7335 69.9334 15.8001 69.8001 15.8001C69.6667 15.8001 69.5334 15.8001 69.4001 15.6668C69.2667 15.6001 69.2001 15.4668 69.1334 15.3335C69.1334 15.1335 69.0001 15.0001 68.8667 14.8668C68.7334 14.7335 68.5334 14.6668 68.3334 14.6668C68.2667 14.6668 68.1334 14.6668 68.0667 14.6668L60.4001 17.0668C60.2667 17.0668 60.1334 17.2001 60.0001 17.3335C59.9334 17.4668 59.8667 17.6001 59.8667 17.8001C59.8667 17.9335 59.8667 18.1335 60.0001 18.2668C60.0667 18.4001 60.2001 18.4668 60.4001 18.5335C60.8001 18.6668 61.1334 18.8668 61.5334 19.0668C61.6667 19.0668 61.7334 19.2001 61.8667 19.3335C61.9334 19.4668 62.0001 19.6001 62.0001 19.7335V28.6001C62.0001 28.7335 62.0001 28.9335 61.8667 29.0668C61.8001 29.2001 61.6667 29.2668 61.4667 29.3335C61.3334 29.3335 61.1334 29.4668 60.9334 29.5335C60.2001 29.8001 59.4001 29.8001 58.7334 29.5335C58.5334 29.4668 58.3334 29.4001 58.2001 29.3335C58.0667 29.3335 57.9334 29.2001 57.8001 29.0668C57.7334 28.9335 57.6667 28.8001 57.6667 28.6001V18.8668C57.6667 15.9335 56.0001 14.4001 53.0001 14.4001C50.0001 14.4001 49.7334 15.0001 48.8001 15.5335C48.6667 15.6001 48.5334 15.6668 48.4001 15.6668C48.2667 15.6668 48.1334 15.6668 48.0001 15.5335C47.8667 15.4668 47.8001 15.3335 47.7334 15.2001C47.7334 15.0001 47.6001 14.8668 47.4667 14.7335C47.3334 14.6001 47.1334 14.5335 46.9334 14.5335C46.8667 14.5335 46.7334 14.5335 46.6667 14.5335L39.0001 16.9335C38.8667 16.9335 38.7334 17.0668 38.6667 17.2001C38.6001 17.3335 38.5334 17.4668 38.5334 17.6668C38.5334 17.8001 38.5334 18.0001 38.6667 18.1335C38.7334 18.2668 38.8667 18.3335 39.0667 18.4001C39.4667 18.5335 39.8667 18.7335 40.2001 18.9335C40.3334 18.9335 40.4667 19.0668 40.5334 19.2001C40.6001 19.3335 40.6667 19.4668 40.6667 19.6001V28.4668C40.6667 28.6001 40.6667 28.8001 40.5334 28.9335C40.4001 29.0668 40.3334 29.1335 40.1334 29.2001C40.0001 29.2001 39.8001 29.3335 39.6001 29.4001C39.2667 29.5335 38.8667 29.6001 38.4667 29.6001C38.0667 29.6001 37.7334 29.6001 37.4001 29.4001C37.2001 29.3335 37.0001 29.2668 36.8667 29.2001C36.7334 29.2001 36.6001 29.0668 36.4667 28.9335C36.4001 28.8001 36.3334 28.6668 36.3334 28.4668V15.4668C36.3334 15.3335 36.3334 15.2668 36.2667 15.1335C36.2667 15.0668 36.1334 14.9335 36.0667 14.8668C36.0001 14.8001 35.9334 14.7335 35.8001 14.7335C35.7334 14.7335 35.6001 14.7335 35.4667 14.7335C35.4001 14.7335 35.2667 14.7335 35.2001 14.7335L27.5334 17.1335C27.4001 17.1335 27.2667 17.2668 27.1334 17.4001C27.0667 17.5335 27.0001 17.6668 27.0001 17.8668C27.0001 18.0001 27.0001 18.2001 27.1334 18.3335C27.2001 18.4668 27.3334 18.5335 27.5334 18.6001C27.9334 18.7335 28.3334 18.9335 28.6667 19.1335C28.8001 19.1335 28.9334 19.2668 29.0001 19.4001C29.0667 19.5335 29.1334 19.6668 29.1334 19.8001V28.4668C29.1334 28.6668 29.1334 28.8001 29.0001 28.9335C28.9334 29.0668 28.8667 29.2001 28.7334 29.3335C28.6001 29.4668 28.4667 29.5335 28.3334 29.6001C28.2001 29.6001 28.0001 29.6668 27.8667 29.6668C27.6667 29.6668 27.4667 29.6668 27.3334 29.5335C27.1334 29.4668 27.0001 29.3335 26.8667 29.2001L19.8001 20.5335C19.8001 20.5335 19.7334 20.4001 19.7334 20.3335C19.7334 20.2668 19.7334 20.2001 19.8001 20.1335C19.8001 20.1335 19.9334 20.0001 20.0001 20.0001C21.0667 19.4668 21.9334 18.6668 22.6001 17.6668C23.2001 16.6668 23.6001 15.5335 23.6001 14.3335C23.6001 10.5335 19.7334 8.4668 15.8001 8.4668H1.13339V8.60013ZM11.1334 10.1335C11.8001 10.1335 12.4001 10.2668 13.0001 10.5335C13.6001 10.8001 14.1334 11.1335 14.6001 11.6001C15.0667 12.0668 15.4001 12.6001 15.6667 13.2001C15.9334 13.8001 16.0667 14.4668 16.0001 15.0668C16.0001 17.0001 13.8667 19.8001 11.0667 19.8001C10.8667 19.8001 10.6667 19.7335 10.5334 19.6001C10.4001 19.4668 10.2667 19.2668 10.2667 19.0668V10.9335C10.2667 10.7335 10.3334 10.5335 10.5334 10.4001C10.6667 10.2668 10.8667 10.2001 11.0667 10.2001L11.1334 10.1335Z" fill="#DF0024"/>
<path d="M89.0666 14.6001C83.0666 14.6001 80.8 17.9334 80.8 19.6001C80.8 21.2668 82.2666 22.1334 84 22.1334C85.7333 22.1334 87.4 20.4001 87.4 19.2001C87.4 18.0001 87.2 18.6001 87.2666 17.8001C87.3333 17.4668 87.5333 17.1334 87.8 16.8668C88.0666 16.6001 88.4 16.4668 88.8 16.4001C89.8666 16.4001 90.0666 17.8001 90.0666 18.6668V20.0001C90.0666 20.2001 90.0666 20.4668 89.9333 20.6668C89.8 20.8668 89.6 21.0001 89.4 21.0668C87.5333 21.8001 85.7333 22.6668 83.9333 23.6001C81.5333 24.9334 80.8 26.6001 80.8 27.6668C80.8 28.7334 81.8666 31.0001 84.8666 31.0001C86.2 31.0001 87.4666 30.5334 88.5333 29.6668C88.8666 29.4668 89.0666 29.2668 89.1333 29.2001C89.5333 28.9334 89.8666 28.7334 90.2 29.2668C90.8666 30.3334 92.4 31.0001 94.4666 31.0001C96.5333 31.0001 98.5333 29.7334 99 28.1334C99.0666 27.8668 98.7333 27.5334 98.4 27.5334C98.0666 27.5334 97.5333 27.8668 97.2666 27.8668C97.0666 27.8668 96.8666 27.8001 96.7333 27.6668C96.6 27.5334 96.4666 27.3334 96.4666 27.1334V18.7334C96.4666 17.7334 96.0666 14.6001 89.0666 14.6001ZM89.6666 22.9334C89.9333 22.9334 90.0666 23.0668 90.0666 23.8001V26.0668C90.0666 27.6001 89.1333 28.0668 88.5333 28.0668C87.9333 28.0668 87 27.4001 87 26.1334C87 24.4668 88.4666 22.9334 89.6666 22.9334Z" fill="#DF0024"/>
</g>
</g>
</g>
<defs>
<clipPath id="clip0_2025_1291">
<rect width="110" height="40" fill="white"/>
</clipPath>
</defs>
</svg>
