<svg width="32" height="32" viewBox="0 0 32 32" fill="none" xmlns="http://www.w3.org/2000/svg">
<path d="M9.66699 21.333C9.66691 20.8913 9.49099 20.4677 9.17871 20.1553C8.86615 19.8427 8.44203 19.667 8 19.667H5V25.333C5 25.775 5.17572 26.1992 5.48828 26.5117C5.80084 26.8243 6.22497 27 6.66699 27H8C8.44203 27 8.86615 26.8243 9.17871 26.5117C9.49117 26.1992 9.66699 25.775 9.66699 25.333V21.333ZM20.333 25.333V21.333C20.3331 20.3607 20.7197 19.4278 21.4072 18.7402C22.0948 18.0527 23.0276 17.667 24 17.667H27V16C27 13.0826 25.8412 10.2846 23.7783 8.22168C21.7154 6.15878 18.9174 5 16 5C13.0826 5 10.2846 6.15878 8.22168 8.22168C6.15878 10.2846 5 13.0826 5 16V17.667H8C8.97238 17.667 9.90516 18.0527 10.5928 18.7402C11.2803 19.4278 11.6669 20.3607 11.667 21.333V25.333C11.667 26.3054 11.2803 27.2382 10.5928 27.9258C9.90514 28.6134 8.97246 29 8 29H6.66699C5.69453 29 4.76185 28.6134 4.07422 27.9258C3.38659 27.2381 3 26.3055 3 25.333V16C3 12.5522 4.36964 9.24559 6.80762 6.80762C9.24559 4.36964 12.5522 3 16 3C19.4478 3 22.7544 4.36964 25.1924 6.80762C27.6304 9.24559 29 12.5522 29 16V25.333C29 26.3055 28.6134 27.2381 27.9258 27.9258C27.2381 28.6134 26.3055 29 25.333 29H24C23.0275 29 22.0949 28.6134 21.4072 27.9258C20.7197 27.2382 20.333 26.3054 20.333 25.333ZM22.333 25.333C22.333 25.775 22.5088 26.1992 22.8213 26.5117C23.1339 26.8243 23.558 27 24 27H25.333C25.775 27 26.1992 26.8243 26.5117 26.5117C26.8243 26.1992 27 25.775 27 25.333V19.667H24C23.558 19.667 23.1339 19.8427 22.8213 20.1553C22.509 20.4677 22.3331 20.8913 22.333 21.333V25.333Z" fill="white"/>
</svg>
