<svg width="40" height="40" viewBox="0 0 40 40" fill="none" xmlns="http://www.w3.org/2000/svg">
<g clip-path="url(#clip0_0_109)">
<rect width="40" height="40" fill="#F0F8FF"/>
<path d="M19.9423 35.7838L28.0557 31.4045C24.0092 31.4415 24.0055 22.1523 24.0055 22.1523H15.8791C15.8791 22.1523 15.8754 31.4415 11.8289 31.4045L19.9423 35.7838Z" fill="#FBDEC1"/>
<path d="M26.551 28.2989L25.4862 26.0732L19.9478 28.7426L14.1322 26.0732L13.0674 28.2989L11.8289 32.3917L14.4649 39.2425C15.8976 39.6437 17.3931 39.8932 18.9348 39.9727H21.0681C22.3972 39.9043 23.6912 39.7084 24.9427 39.3997L27.2479 32.3917L26.5528 28.2989H26.551Z" fill="white"/>
<path d="M19.9996 39.9994C26.3402 39.9994 32.0061 37.1193 35.7643 32.594C32.6254 30.8729 26.5491 28.2979 26.5491 28.2979C26.5491 28.2979 21.0607 39.6112 20.031 39.6112C19.0014 39.6112 13.0637 28.2979 13.0637 28.2979C13.0637 28.2979 7.27766 30.8193 4.18683 32.5403C7.94315 37.0953 13.6312 39.9994 19.9978 39.9994H19.9996Z" fill="#7AC28C"/>
<path d="M24.3308 25.8384C24.0055 23.8771 24.0055 22.1523 24.0055 22.1523H15.8791C15.8791 22.1523 15.8791 23.8512 15.5612 25.7922C16.6574 26.735 18.2638 27.2415 19.9737 27.2415C21.6837 27.2415 23.242 26.7516 24.3327 25.8384H24.3308Z" fill="#F8C9A4"/>
<path d="M26.3735 19.6915C26.3107 20.3478 26.1425 20.9153 25.9946 21.4089C25.159 24.1762 22.974 25.7253 19.9719 25.7253C16.9698 25.7253 14.7866 24.1762 13.9492 21.4089C13.7995 20.9153 13.6461 20.3478 13.5832 19.6915L12.7107 13.7742C12.7107 13.7742 11.84 6.17285 20.0403 6.17285C28.2406 6.17285 27.5437 13.7742 27.5437 13.7742L26.3735 19.6915Z" fill="#FBDEC1"/>
<path d="M26.27 19.6981C28.5105 19.6038 29.017 17.3781 28.5604 16.6424C27.9171 15.6035 26.7617 16.256 26.7617 16.256L25.9964 16.5204L25.7783 19.7406L26.27 19.6981Z" fill="#FBDEC1"/>
<path d="M13.6867 19.6981C11.4462 19.6038 10.9397 17.3781 11.3963 16.6424C12.0396 15.6035 13.195 16.256 13.195 16.256L13.9603 16.5204L14.1784 19.7406L13.6867 19.6981Z" fill="#FBDEC1"/>
<path d="M19.9904 7.65846C20.8925 7.67324 21.9277 7.58636 23.1551 7.29799C23.1551 7.29799 24.3142 6.95969 24.7505 8.17606C24.7505 8.17606 25.1202 10.7216 26.7617 16.2544C26.7617 16.2544 27.1851 16.0159 27.662 16.0584C29.5956 8.77316 25.3882 6.88575 25.3882 6.88575C25.3882 6.88575 23.6654 4.80425 19.6502 5.01499C18.0198 5.10002 16.2581 5.43276 14.6868 6.88575C14.6868 6.88575 10.4887 8.95616 12.413 16.0547C12.8401 16.0547 13.195 16.2562 13.195 16.2562C14.8365 10.7234 15.2303 8.17791 15.2303 8.17791C15.6665 6.96155 16.8256 7.29984 16.8256 7.29984C18.0531 7.58821 19.0883 7.67509 19.9904 7.66031V7.65846Z" fill="#416792"/>
<path d="M23.0479 17.8265C22.9998 17.8265 22.9499 17.8265 22.9 17.8228C22.1883 17.7858 21.6337 17.5215 21.2511 17.039C20.6909 16.331 20.7094 15.3901 20.7649 15.0888C20.7686 15.0703 20.7741 15.0499 20.7797 15.0315C20.7963 14.9852 21.2012 13.8946 22.9129 13.987C24.4269 14.0702 25.1737 14.6969 25.3549 15.2071C25.4566 15.4973 25.3087 16.3144 24.8447 16.9355C24.536 17.3477 23.9777 17.8265 23.046 17.8265H23.0479ZM21.4858 15.2588C21.4526 15.525 21.4914 16.1517 21.8297 16.5787C22.0737 16.8874 22.4471 17.0575 22.937 17.0834C23.425 17.1074 23.828 16.9595 24.1293 16.6379C24.5452 16.1979 24.6525 15.5879 24.6469 15.4326C24.56 15.2496 24.0942 14.7911 22.8704 14.7246C21.8537 14.6691 21.5431 15.1405 21.484 15.257L21.4858 15.2588Z" fill="#416792"/>
<path d="M17.1195 17.8119C16.4355 17.8119 15.8606 17.5384 15.4484 17.0171C14.9234 16.3497 14.8014 15.4328 14.8846 15.15C15.0232 14.6804 15.5464 14.1 17.2434 14.0076C18.9404 13.9151 19.3415 14.9966 19.3581 15.0428C19.3655 15.0613 19.3692 15.0797 19.3729 15.1001C19.4265 15.3995 19.4469 16.3312 18.8904 17.0337C18.5115 17.5125 17.9625 17.775 17.2563 17.8119C17.2101 17.8138 17.1639 17.8156 17.1177 17.8156L17.1195 17.8119ZM15.6 15.3459C15.587 15.5068 15.6832 16.1944 16.112 16.6566C16.3949 16.9597 16.759 17.0965 17.2193 17.0707C17.7037 17.0448 18.0697 16.8784 18.3118 16.5734C18.6446 16.1519 18.6852 15.5326 18.652 15.2701C18.591 15.1537 18.2878 14.6897 17.284 14.7451C16.1749 14.8061 15.6887 15.0927 15.6 15.3459Z" fill="#416792"/>
<path d="M21.0293 15.3761C20.983 15.3761 20.9368 15.3669 20.8906 15.3484C20.8869 15.3484 20.4747 15.1857 19.9904 15.1857C19.506 15.1857 19.116 15.3447 19.1123 15.3465C18.9237 15.4242 18.7074 15.3355 18.6298 15.1469C18.5522 14.9584 18.6391 14.7439 18.8276 14.6644C18.8498 14.6552 19.3544 14.4463 19.9922 14.4463C20.63 14.4463 21.1476 14.6533 21.1698 14.6626C21.3583 14.7384 21.4507 14.9547 21.3749 15.1432C21.3176 15.2874 21.179 15.3743 21.0311 15.3743L21.0293 15.3761Z" fill="#416792"/>
</g>
<defs>
<clipPath id="clip0_0_109">
<rect width="40" height="40" rx="20" fill="white"/>
</clipPath>
</defs>
</svg>
