<svg width="116" height="20" viewBox="0 0 116 20" fill="none" xmlns="http://www.w3.org/2000/svg">
<path d="M9.60416 1.91274C9.64068 1.83895 9.69709 1.77685 9.76704 1.73342C9.83698 1.69 9.91767 1.66699 9.99999 1.66699C10.0823 1.66699 10.163 1.69 10.233 1.73342C10.3029 1.77685 10.3593 1.83895 10.3958 1.91274L12.3208 5.8119C12.4476 6.06854 12.6348 6.29058 12.8663 6.45895C13.0979 6.62732 13.3668 6.737 13.65 6.77857L17.955 7.40857C18.0366 7.42039 18.1132 7.4548 18.1762 7.5079C18.2393 7.56101 18.2862 7.63069 18.3117 7.70908C18.3372 7.78746 18.3402 7.87141 18.3205 7.95143C18.3007 8.03146 18.259 8.10436 18.2 8.1619L15.0867 11.1936C14.8813 11.3937 14.7277 11.6406 14.639 11.9133C14.5503 12.1859 14.5292 12.476 14.5775 12.7586L15.3125 17.0419C15.3269 17.1234 15.3181 17.2074 15.2871 17.2841C15.2561 17.3609 15.2041 17.4274 15.1371 17.4761C15.0701 17.5247 14.9908 17.5536 14.9082 17.5593C14.8256 17.5651 14.7431 17.5475 14.67 17.5086L10.8217 15.4852C10.5681 15.3521 10.286 15.2825 9.99958 15.2825C9.71318 15.2825 9.43106 15.3521 9.17749 15.4852L5.32999 17.5086C5.25694 17.5472 5.17449 17.5646 5.09204 17.5588C5.00958 17.5529 4.93043 17.524 4.86357 17.4754C4.79672 17.4268 4.74485 17.3604 4.71387 17.2838C4.68289 17.2071 4.67404 17.1233 4.68833 17.0419L5.42249 12.7594C5.47099 12.4767 5.44998 12.1864 5.36128 11.9136C5.27257 11.6408 5.11883 11.3937 4.91333 11.1936L1.79999 8.16274C1.74049 8.10526 1.69832 8.03223 1.6783 7.95197C1.65827 7.8717 1.66119 7.78742 1.68673 7.70873C1.71226 7.63004 1.75938 7.5601 1.82272 7.50689C1.88607 7.45367 1.96308 7.41932 2.04499 7.40774L6.34916 6.77857C6.63271 6.73732 6.90199 6.62778 7.13381 6.45939C7.36564 6.291 7.55308 6.0688 7.67999 5.8119L9.60416 1.91274Z" fill="#FDC700" stroke="#FDC700" stroke-width="1.66667" stroke-linecap="round" stroke-linejoin="round"/>
<path d="M33.6042 1.91274C33.6407 1.83895 33.6971 1.77685 33.767 1.73342C33.837 1.69 33.9177 1.66699 34 1.66699C34.0823 1.66699 34.163 1.69 34.233 1.73342C34.3029 1.77685 34.3593 1.83895 34.3958 1.91274L36.3208 5.8119C36.4476 6.06854 36.6348 6.29058 36.8663 6.45895C37.0979 6.62732 37.3668 6.737 37.65 6.77857L41.955 7.40857C42.0366 7.42039 42.1132 7.4548 42.1762 7.5079C42.2393 7.56101 42.2862 7.63069 42.3117 7.70908C42.3372 7.78746 42.3402 7.87141 42.3205 7.95143C42.3007 8.03146 42.259 8.10436 42.2 8.1619L39.0867 11.1936C38.8813 11.3937 38.7277 11.6406 38.639 11.9133C38.5503 12.1859 38.5292 12.476 38.5775 12.7586L39.3125 17.0419C39.3269 17.1234 39.3181 17.2074 39.2871 17.2841C39.2561 17.3609 39.2041 17.4274 39.1371 17.4761C39.0701 17.5247 38.9908 17.5536 38.9082 17.5593C38.8256 17.5651 38.7431 17.5475 38.67 17.5086L34.8217 15.4852C34.5681 15.3521 34.286 15.2825 33.9996 15.2825C33.7132 15.2825 33.4311 15.3521 33.1775 15.4852L29.33 17.5086C29.2569 17.5472 29.1745 17.5646 29.092 17.5588C29.0096 17.5529 28.9304 17.524 28.8636 17.4754C28.7967 17.4268 28.7449 17.3604 28.7139 17.2838C28.6829 17.2071 28.674 17.1233 28.6883 17.0419L29.4225 12.7594C29.471 12.4767 29.45 12.1864 29.3613 11.9136C29.2726 11.6408 29.1188 11.3937 28.9133 11.1936L25.8 8.16274C25.7405 8.10526 25.6983 8.03223 25.6783 7.95197C25.6583 7.8717 25.6612 7.78742 25.6867 7.70873C25.7123 7.63004 25.7594 7.5601 25.8227 7.50689C25.8861 7.45367 25.9631 7.41932 26.045 7.40774L30.3492 6.77857C30.6327 6.73732 30.902 6.62778 31.1338 6.45939C31.3656 6.291 31.5531 6.0688 31.68 5.8119L33.6042 1.91274Z" fill="#FDC700" stroke="#FDC700" stroke-width="1.66667" stroke-linecap="round" stroke-linejoin="round"/>
<path d="M57.6042 1.91274C57.6407 1.83895 57.6971 1.77685 57.767 1.73342C57.837 1.69 57.9177 1.66699 58 1.66699C58.0823 1.66699 58.163 1.69 58.233 1.73342C58.3029 1.77685 58.3593 1.83895 58.3958 1.91274L60.3208 5.8119C60.4476 6.06854 60.6348 6.29058 60.8663 6.45895C61.0979 6.62732 61.3668 6.737 61.65 6.77857L65.955 7.40857C66.0366 7.42039 66.1132 7.4548 66.1762 7.5079C66.2393 7.56101 66.2862 7.63069 66.3117 7.70908C66.3372 7.78746 66.3402 7.87141 66.3205 7.95143C66.3007 8.03146 66.259 8.10436 66.2 8.1619L63.0867 11.1936C62.8813 11.3937 62.7277 11.6406 62.639 11.9133C62.5503 12.1859 62.5292 12.476 62.5775 12.7586L63.3125 17.0419C63.3269 17.1234 63.3181 17.2074 63.2871 17.2841C63.2561 17.3609 63.2041 17.4274 63.1371 17.4761C63.0701 17.5247 62.9908 17.5536 62.9082 17.5593C62.8256 17.5651 62.7431 17.5475 62.67 17.5086L58.8217 15.4852C58.5681 15.3521 58.286 15.2825 57.9996 15.2825C57.7132 15.2825 57.4311 15.3521 57.1775 15.4852L53.33 17.5086C53.2569 17.5472 53.1745 17.5646 53.092 17.5588C53.0096 17.5529 52.9304 17.524 52.8636 17.4754C52.7967 17.4268 52.7449 17.3604 52.7139 17.2838C52.6829 17.2071 52.674 17.1233 52.6883 17.0419L53.4225 12.7594C53.471 12.4767 53.45 12.1864 53.3613 11.9136C53.2726 11.6408 53.1188 11.3937 52.9133 11.1936L49.8 8.16274C49.7405 8.10526 49.6983 8.03223 49.6783 7.95197C49.6583 7.8717 49.6612 7.78742 49.6867 7.70873C49.7123 7.63004 49.7594 7.5601 49.8227 7.50689C49.8861 7.45367 49.9631 7.41932 50.045 7.40774L54.3492 6.77857C54.6327 6.73732 54.902 6.62778 55.1338 6.45939C55.3656 6.291 55.5531 6.0688 55.68 5.8119L57.6042 1.91274Z" fill="#FDC700" stroke="#FDC700" stroke-width="1.66667" stroke-linecap="round" stroke-linejoin="round"/>
<path d="M81.6042 1.91274C81.6407 1.83895 81.6971 1.77685 81.767 1.73342C81.837 1.69 81.9177 1.66699 82 1.66699C82.0823 1.66699 82.163 1.69 82.233 1.73342C82.3029 1.77685 82.3593 1.83895 82.3958 1.91274L84.3208 5.8119C84.4476 6.06854 84.6348 6.29058 84.8663 6.45895C85.0979 6.62732 85.3668 6.737 85.65 6.77857L89.955 7.40857C90.0366 7.42039 90.1132 7.4548 90.1762 7.5079C90.2393 7.56101 90.2862 7.63069 90.3117 7.70908C90.3372 7.78746 90.3402 7.87141 90.3205 7.95143C90.3007 8.03146 90.259 8.10436 90.2 8.1619L87.0867 11.1936C86.8813 11.3937 86.7277 11.6406 86.639 11.9133C86.5503 12.1859 86.5292 12.476 86.5775 12.7586L87.3125 17.0419C87.3269 17.1234 87.3181 17.2074 87.2871 17.2841C87.2561 17.3609 87.2041 17.4274 87.1371 17.4761C87.0701 17.5247 86.9908 17.5536 86.9082 17.5593C86.8256 17.5651 86.7431 17.5475 86.67 17.5086L82.8217 15.4852C82.5681 15.3521 82.286 15.2825 81.9996 15.2825C81.7132 15.2825 81.4311 15.3521 81.1775 15.4852L77.33 17.5086C77.2569 17.5472 77.1745 17.5646 77.092 17.5588C77.0096 17.5529 76.9304 17.524 76.8636 17.4754C76.7967 17.4268 76.7449 17.3604 76.7139 17.2838C76.6829 17.2071 76.674 17.1233 76.6883 17.0419L77.4225 12.7594C77.471 12.4767 77.45 12.1864 77.3613 11.9136C77.2726 11.6408 77.1188 11.3937 76.9133 11.1936L73.8 8.16274C73.7405 8.10526 73.6983 8.03223 73.6783 7.95197C73.6583 7.8717 73.6612 7.78742 73.6867 7.70873C73.7123 7.63004 73.7594 7.5601 73.8227 7.50689C73.8861 7.45367 73.9631 7.41932 74.045 7.40774L78.3492 6.77857C78.6327 6.73732 78.902 6.62778 79.1338 6.45939C79.3656 6.291 79.5531 6.0688 79.68 5.8119L81.6042 1.91274Z" fill="#FDC700" stroke="#FDC700" stroke-width="1.66667" stroke-linecap="round" stroke-linejoin="round"/>
<path d="M105.604 1.91274C105.641 1.83895 105.697 1.77685 105.767 1.73342C105.837 1.69 105.918 1.66699 106 1.66699C106.082 1.66699 106.163 1.69 106.233 1.73342C106.303 1.77685 106.359 1.83895 106.396 1.91274L108.321 5.8119C108.448 6.06854 108.635 6.29058 108.866 6.45895C109.098 6.62732 109.367 6.737 109.65 6.77857L113.955 7.40857C114.037 7.42039 114.113 7.4548 114.176 7.5079C114.239 7.56101 114.286 7.63069 114.312 7.70908C114.337 7.78746 114.34 7.87141 114.32 7.95143C114.301 8.03146 114.259 8.10436 114.2 8.1619L111.087 11.1936C110.881 11.3937 110.728 11.6406 110.639 11.9133C110.55 12.1859 110.529 12.476 110.577 12.7586L111.312 17.0419C111.327 17.1234 111.318 17.2074 111.287 17.2841C111.256 17.3609 111.204 17.4274 111.137 17.4761C111.07 17.5247 110.991 17.5536 110.908 17.5593C110.826 17.5651 110.743 17.5475 110.67 17.5086L106.822 15.4852C106.568 15.3521 106.286 15.2825 106 15.2825C105.713 15.2825 105.431 15.3521 105.177 15.4852L101.33 17.5086C101.257 17.5472 101.174 17.5646 101.092 17.5588C101.01 17.5529 100.93 17.524 100.864 17.4754C100.797 17.4268 100.745 17.3604 100.714 17.2838C100.683 17.2071 100.674 17.1233 100.688 17.0419L101.422 12.7594C101.471 12.4767 101.45 12.1864 101.361 11.9136C101.273 11.6408 101.119 11.3937 100.913 11.1936L97.8 8.16274C97.7405 8.10526 97.6983 8.03223 97.6783 7.95197C97.6583 7.8717 97.6612 7.78742 97.6867 7.70873C97.7123 7.63004 97.7594 7.5601 97.8227 7.50689C97.8861 7.45367 97.9631 7.41932 98.045 7.40774L102.349 6.77857C102.633 6.73732 102.902 6.62778 103.134 6.45939C103.366 6.291 103.553 6.0688 103.68 5.8119L105.604 1.91274Z" fill="#FDC700" stroke="#FDC700" stroke-width="1.66667" stroke-linecap="round" stroke-linejoin="round"/>
</svg>
