<svg width="16" height="16" viewBox="0 0 16 16" fill="none" xmlns="http://www.w3.org/2000/svg">
<path d="M8.83331 3.99976V1.33325C8.83331 1.05711 9.05717 0.833252 9.33331 0.833252C9.60946 0.833252 9.83331 1.05711 9.83331 1.33325V3.99976C9.83331 4.22077 9.92117 4.43283 10.0775 4.58911C10.2337 4.74539 10.4458 4.83325 10.6668 4.83325H13.3333C13.6095 4.83325 13.8333 5.05711 13.8333 5.33325C13.8333 5.60939 13.6095 5.83325 13.3333 5.83325H10.6668C10.1806 5.83325 9.71424 5.63996 9.37042 5.29614C9.02661 4.95233 8.83331 4.48599 8.83331 3.99976Z" fill="white"/>
<path d="M2.16669 4.66675V2.66675C2.16669 2.18052 2.35998 1.71418 2.7038 1.37036C3.04761 1.02654 3.51395 0.833252 4.00018 0.833252H10.0002L10.0495 0.835693C10.1639 0.84707 10.2717 0.897703 10.3537 0.979736L13.6867 4.31323C13.7805 4.407 13.8332 4.53414 13.8332 4.66675V13.3333C13.8332 13.8194 13.6403 14.2858 13.2966 14.6296C12.9528 14.9734 12.4864 15.1667 12.0002 15.1667H3.9953C3.67431 15.1659 3.35902 15.0805 3.08124 14.9197C2.80349 14.7588 2.57278 14.5277 2.41229 14.2498C2.27435 14.0107 2.35635 13.7052 2.5954 13.5671C2.83452 13.4291 3.14042 13.5107 3.2785 13.7498C3.35147 13.8761 3.45642 13.9813 3.5827 14.0544C3.70888 14.1275 3.85196 14.1663 3.99774 14.1667H12.0002C12.2211 14.1667 12.4328 14.0787 12.5891 13.9226C12.7453 13.7663 12.8332 13.5543 12.8332 13.3333V4.87329L9.79315 1.83325H4.00018C3.77917 1.83325 3.56711 1.92111 3.41083 2.07739C3.25455 2.23367 3.16669 2.44573 3.16669 2.66675V4.66675C3.1666 4.94282 2.94278 5.16675 2.66669 5.16675C2.3906 5.16675 2.16677 4.94282 2.16669 4.66675Z" fill="white"/>
<path d="M4.64651 10.6464C4.84177 10.4512 5.15828 10.4512 5.35354 10.6464L6.35354 11.6464C6.5488 11.8417 6.5488 12.1582 6.35354 12.3535C6.15828 12.5487 5.84177 12.5487 5.64651 12.3535L4.64651 11.3535C4.45125 11.1582 4.45125 10.8417 4.64651 10.6464Z" fill="white"/>
<path d="M4.83331 9.33325C4.83331 8.50482 4.16174 7.83325 3.33331 7.83325C2.50489 7.83325 1.83331 8.50482 1.83331 9.33325C1.83331 10.1617 2.50489 10.8333 3.33331 10.8333C4.16174 10.8333 4.83331 10.1617 4.83331 9.33325ZM5.83331 9.33325C5.83331 10.714 4.71403 11.8333 3.33331 11.8333C1.9526 11.8333 0.833313 10.714 0.833313 9.33325C0.833313 7.95254 1.9526 6.83325 3.33331 6.83325C4.71403 6.83325 5.83331 7.95254 5.83331 9.33325Z" fill="white"/>
</svg>
