<svg width="32" height="32" viewBox="133 19 32 32" fill="none" xmlns="http://www.w3.org/2000/svg">
<path d="M154.667 48V45.3333C154.667 43.9188 154.105 42.5623 153.105 41.5621C152.104 40.5619 150.748 40 149.333 40H141.333C139.919 40 138.562 40.5619 137.562 41.5621C136.562 42.5623 136 43.9188 136 45.3333V48" stroke="#2482CD" stroke-width="2.66667" stroke-linecap="round" stroke-linejoin="round"/>
<path d="M145.333 34.6667C148.279 34.6667 150.667 32.2789 150.667 29.3333C150.667 26.3878 148.279 24 145.333 24C142.388 24 140 26.3878 140 29.3333C140 32.2789 142.388 34.6667 145.333 34.6667Z" stroke="#2482CD" stroke-width="2.66667" stroke-linecap="round" stroke-linejoin="round"/>
<path d="M162.667 48V45.3333C162.666 44.1516 162.272 43.0037 161.548 42.0698C160.824 41.1358 159.811 40.4688 158.667 40.1733" stroke="#2482CD" stroke-width="2.66667" stroke-linecap="round" stroke-linejoin="round"/>
<path d="M154.667 24.1733C155.814 24.4671 156.831 25.1343 157.557 26.0698C158.283 27.0052 158.677 28.1558 158.677 29.34C158.677 30.5242 158.283 31.6748 157.557 32.6103C156.831 33.5457 155.814 34.2129 154.667 34.5067" stroke="#2482CD" stroke-width="2.66667" stroke-linecap="round" stroke-linejoin="round"/>
</svg>
