<svg width="110" height="40" viewBox="0 0 110 40" fill="none" xmlns="http://www.w3.org/2000/svg">
<g clip-path="url(#clip0_2025_1370)">
<mask id="mask0_2025_1370" style="mask-type:luminance" maskUnits="userSpaceOnUse" x="0" y="0" width="110" height="40">
<path d="M0 0H110V40H0V0Z" fill="white"/>
</mask>
<g mask="url(#mask0_2025_1370)">
<path d="M8.64601 7.05073L1.00734 9.06606C0.720933 9.12951 0.464845 9.28902 0.281605 9.5181C0.0983645 9.74718 -0.00100166 10.032 7.61325e-06 10.3254V31.6507C7.61325e-06 32.6581 0.587341 32.4901 1.51134 32.3221L7.05201 31.1467C7.80734 30.9787 8.14334 30.4754 8.14334 29.4681V26.3587C10.9133 25.6034 14.9433 24.2601 17.5433 21.1541C19.0547 19.3914 19.558 18.2161 19.81 15.2781C20.1467 10.9974 15.698 5.28873 8.64601 7.05073ZM9.23334 23.5881C9.15462 23.6637 9.05676 23.7164 8.95031 23.7405C8.84386 23.7646 8.73285 23.7592 8.62922 23.725C8.5256 23.6907 8.43329 23.6288 8.36224 23.5459C8.29119 23.463 8.24409 23.3624 8.22601 23.2547V9.3174C8.22601 8.98406 8.55934 8.56206 8.98134 8.98406C9.40334 9.40606 11.92 11.6687 11.92 16.3694C11.836 20.9841 9.57001 23.2507 9.23401 23.5887L9.23334 23.5881Z" fill="#D81618"/>
<path d="M33.5781 17.2097C32.4867 17.2937 31.8154 17.3777 31.8154 17.3777C31.0601 16.9577 27.6154 16.3703 25.4354 16.8737C23.4234 17.377 16.9567 19.9797 16.9567 26.947C16.9567 31.5637 20.4827 32.655 22.7487 32.655C25.0147 32.655 26.7781 31.7317 27.7014 31.6477C27.7014 32.403 27.9534 32.823 29.1287 32.655C30.6841 32.3996 32.225 32.0633 33.7454 31.6477C34.9207 31.3957 35.0047 30.8923 35.0047 29.969V19.1403C35.0047 17.881 34.5854 17.2097 33.5781 17.2097ZM27.9567 28.2063C27.9762 28.3547 27.9613 28.5055 27.9132 28.6472C27.8651 28.7888 27.785 28.9175 27.6792 29.0233C27.5733 29.129 27.4446 29.209 27.3029 29.2571C27.1612 29.3051 27.0104 29.3199 26.8621 29.3003C26.1907 29.3003 24.0081 28.545 24.0081 24.5157C24.0081 22.5823 24.8474 19.815 26.5267 19.815C27.9541 19.815 27.9541 21.3263 27.9541 21.4937L27.9567 28.2063Z" fill="#D81618"/>
<path d="M108.121 17.2097C107.03 17.2937 106.359 17.3777 106.359 17.3777C105.603 16.9577 102.159 16.3703 99.9787 16.8737C97.964 17.3777 91.584 19.9797 91.584 26.947C91.584 31.5637 95.11 32.655 97.376 32.655C99.642 32.655 101.405 31.7317 102.329 31.6477C102.329 32.403 102.581 32.823 103.756 32.655C105.311 32.3996 106.852 32.0633 108.373 31.6477C109.548 31.3957 109.632 30.8923 109.632 29.969V19.1403C109.632 17.881 109.213 17.2097 108.121 17.2097ZM102.581 28.2097C102.6 28.3575 102.585 28.5077 102.537 28.6487C102.489 28.7897 102.409 28.9178 102.304 29.0232C102.198 29.1286 102.07 29.2084 101.929 29.2566C101.788 29.3047 101.638 29.3199 101.49 29.301C100.819 29.301 98.636 28.5457 98.636 24.5163C98.636 22.583 99.4753 19.8157 101.155 19.8157C102.582 19.8157 102.582 21.327 102.582 21.4943C102.584 22.4137 102.584 27.451 102.584 28.2063L102.581 28.2097Z" fill="#D81618"/>
<path d="M46.4213 27.9542C45.246 27.9542 44.8266 26.6109 44.8266 25.9395V7.72355C44.8266 6.79955 44.0713 6.97088 43.4833 7.05155C41.8713 7.30006 40.274 7.63634 38.6986 8.05888C37.6046 8.22688 37.2713 9.15022 37.2713 10.8289V29.6329C37.2713 32.3189 39.454 32.7389 40.4613 32.7389C40.9203 32.733 41.3747 32.6477 41.8046 32.4869C43.7147 31.7956 45.5672 30.9543 47.3446 29.9709C48.352 29.2129 48.352 27.9542 46.4213 27.9542Z" fill="#D81618"/>
<path d="M61.2799 16.4531C60.2726 16.4531 59.4333 17.4605 57.5026 18.4678C56.5793 18.9718 56.1593 18.5518 55.9913 18.2998C55.5713 17.8798 55.0679 16.8725 53.8926 16.8725C52.7173 16.8725 47.9326 18.6358 47.9326 24.3438C47.9326 28.7091 51.1226 32.7385 57.0826 32.7385C63.0426 32.7385 66.3993 28.4571 66.3993 24.3438C66.4846 20.2305 63.7993 16.4531 61.2799 16.4531ZM57.1666 29.7165C56.4113 29.7165 54.3126 27.7018 54.3126 24.5118C54.3126 21.2378 56.0753 20.7345 57.0826 20.7345C58.09 20.7345 59.8526 21.4898 59.8526 24.1765C59.8526 27.1978 58.426 29.7165 57.1666 29.7165Z" fill="#D81618"/>
<path d="M8.64601 7.05073L1.00734 9.06606C0.720933 9.12951 0.464845 9.28902 0.281605 9.5181C0.0983645 9.74718 -0.00100166 10.032 7.61325e-06 10.3254V31.6507C7.61325e-06 32.6581 0.587341 32.4901 1.51134 32.3221L7.05201 31.1467C7.80734 30.9787 8.14334 30.4754 8.14334 29.4681V26.3587C10.9133 25.6034 14.9433 24.2601 17.5433 21.1541C19.0547 19.3914 19.558 18.2161 19.81 15.2781C20.1467 10.9974 15.698 5.28873 8.64601 7.05073ZM9.23334 23.5881C9.15462 23.6637 9.05676 23.7164 8.95031 23.7405C8.84386 23.7646 8.73285 23.7592 8.62922 23.725C8.5256 23.6907 8.43329 23.6288 8.36224 23.5459C8.29119 23.463 8.24409 23.3624 8.22601 23.2547V9.3174C8.22601 8.98406 8.55934 8.56206 8.98134 8.98406C9.40334 9.40606 11.92 11.6687 11.92 16.3694C11.836 20.9841 9.57001 23.2507 9.23401 23.5887L9.23334 23.5881Z" fill="#D81618"/>
<path d="M33.5781 17.2097C32.4867 17.2937 31.8154 17.3777 31.8154 17.3777C31.0601 16.9577 27.6154 16.3703 25.4354 16.8737C23.4234 17.377 16.9567 19.9797 16.9567 26.947C16.9567 31.5637 20.4827 32.655 22.7487 32.655C25.0147 32.655 26.7781 31.7317 27.7014 31.6477C27.7014 32.403 27.9534 32.823 29.1287 32.655C30.6841 32.3996 32.225 32.0633 33.7454 31.6477C34.9207 31.3957 35.0047 30.8923 35.0047 29.969V19.1403C35.0047 17.881 34.5854 17.2097 33.5781 17.2097ZM27.9567 28.2063C27.9762 28.3547 27.9613 28.5055 27.9132 28.6472C27.8651 28.7888 27.785 28.9175 27.6792 29.0233C27.5733 29.129 27.4446 29.209 27.3029 29.2571C27.1612 29.3051 27.0104 29.3199 26.8621 29.3003C26.1907 29.3003 24.0081 28.545 24.0081 24.5157C24.0081 22.5823 24.8474 19.815 26.5267 19.815C27.9541 19.815 27.9541 21.3263 27.9541 21.4937L27.9567 28.2063Z" fill="#D81618"/>
<path d="M108.121 17.2097C107.03 17.2937 106.359 17.3777 106.359 17.3777C105.603 16.9577 102.159 16.3703 99.9787 16.8737C97.964 17.3777 91.584 19.9797 91.584 26.947C91.584 31.5637 95.11 32.655 97.376 32.655C99.642 32.655 101.405 31.7317 102.329 31.6477C102.329 32.403 102.581 32.823 103.756 32.655C105.311 32.3996 106.852 32.0633 108.373 31.6477C109.548 31.3957 109.632 30.8923 109.632 29.969V19.1403C109.632 17.881 109.213 17.2097 108.121 17.2097ZM102.581 28.2097C102.6 28.3575 102.585 28.5077 102.537 28.6487C102.489 28.7897 102.409 28.9178 102.304 29.0232C102.198 29.1286 102.07 29.2084 101.929 29.2566C101.788 29.3047 101.638 29.3199 101.49 29.301C100.819 29.301 98.636 28.5457 98.636 24.5163C98.636 22.583 99.4753 19.8157 101.155 19.8157C102.582 19.8157 102.582 21.327 102.582 21.4943C102.584 22.4137 102.584 27.451 102.584 28.2063L102.581 28.2097Z" fill="#D81618"/>
<path d="M46.4213 27.9542C45.246 27.9542 44.8266 26.6109 44.8266 25.9395V7.72355C44.8266 6.79955 44.0713 6.97088 43.4833 7.05155C41.8713 7.30006 40.274 7.63634 38.6986 8.05888C37.6046 8.22688 37.2713 9.15022 37.2713 10.8289V29.6329C37.2713 32.3189 39.454 32.7389 40.4613 32.7389C40.9203 32.733 41.3747 32.6477 41.8046 32.4869C43.7147 31.7956 45.5672 30.9543 47.3446 29.9709C48.352 29.2129 48.352 27.9542 46.4213 27.9542Z" fill="#D81618"/>
<path d="M61.2799 16.4531C60.2726 16.4531 59.4333 17.4605 57.5026 18.4678C56.5793 18.9718 56.1593 18.5518 55.9913 18.2998C55.5713 17.8798 55.0679 16.8725 53.8926 16.8725C52.7173 16.8725 47.9326 18.6358 47.9326 24.3438C47.9326 28.7091 51.1226 32.7385 57.0826 32.7385C63.0426 32.7385 66.3993 28.4571 66.3993 24.3438C66.4846 20.2305 63.7993 16.4531 61.2799 16.4531ZM57.1666 29.7165C56.4113 29.7165 54.3126 27.7018 54.3126 24.5118C54.3126 21.2378 56.0753 20.7345 57.0826 20.7345C58.09 20.7345 59.8526 21.4898 59.8526 24.1765C59.8526 27.1978 58.426 29.7165 57.1666 29.7165Z" fill="#D81618"/>
<path d="M85.6234 17.3765C84.952 17.3765 81.0067 18.1319 81.594 17.9639C81.594 17.6305 80.5027 16.8725 79.3274 16.9565C78.32 17.0405 75.8854 17.7119 75.382 17.7959C75.051 17.8654 74.7127 17.8937 74.3747 17.8799C74.3747 17.2085 73.4514 16.8725 73.0314 16.9565C72.6114 17.0405 69.5054 17.7119 68.75 17.8799C68.453 17.9214 68.1831 18.0752 67.9959 18.3095C67.8087 18.5438 67.7183 18.841 67.7434 19.1399V31.3959C67.7434 32.3192 68.4987 32.5712 69.1707 32.4872C69.926 32.4032 71.9407 31.8999 72.78 31.7319C72.9844 31.7054 73.1815 31.6387 73.36 31.5355C73.5384 31.4323 73.6946 31.2948 73.8196 31.1309C73.9445 30.967 74.0357 30.7799 74.0878 30.5805C74.14 30.3811 74.152 30.1733 74.1234 29.9692V21.8259C74.1234 20.1472 75.5507 20.1472 75.5507 21.8259V31.2259C75.5507 33.1592 76.81 32.5692 77.2294 32.4852C77.6487 32.4012 79.664 32.0652 80.4194 31.8139C81.1747 31.5625 81.3427 30.2192 81.3427 29.5472V21.2385C81.3427 19.8112 82.77 19.8112 82.77 21.1545V31.2279C82.77 32.3192 83.8614 32.3192 84.3647 32.1512C84.868 31.9832 87.3027 31.7312 87.974 31.4799C88.4117 31.2932 88.7908 30.9919 89.0715 30.6078C89.3521 30.2236 89.5239 29.7709 89.5687 29.2972C89.5687 28.2899 89.7367 23.5052 89.3167 20.9025C88.8974 18.3845 87.4707 17.3765 85.6234 17.3765Z" fill="#D81618"/>
</g>
</g>
<defs>
<clipPath id="clip0_2025_1370">
<rect width="110" height="40" fill="white"/>
</clipPath>
</defs>
</svg>
