<svg width="16" height="16" viewBox="0 0 16 16" fill="none" xmlns="http://www.w3.org/2000/svg">
<path d="M9.1095 4.66682C9.1095 4.36144 9.22923 4.06801 9.44299 3.84993L11.3859 1.90657C10.944 1.81345 10.4857 1.80571 10.0367 1.88752C9.33694 2.01506 8.6926 2.35284 8.18958 2.85578C7.6865 3.35886 7.34836 4.00351 7.22083 4.70344C7.09329 5.40338 7.18239 6.12556 7.47571 6.77375C7.56148 6.9633 7.5207 7.18616 7.37366 7.33332L2.76672 11.9403C2.59535 12.1117 2.49915 12.3443 2.49915 12.5867C2.49917 12.8292 2.59532 13.0618 2.76672 13.2332C2.93814 13.4046 3.1708 13.5008 3.41321 13.5008C3.65561 13.5008 3.88826 13.4046 4.05969 13.2332L8.66663 8.62629L8.72522 8.57649C8.86905 8.47134 9.06032 8.4492 9.2262 8.52424C9.87439 8.81756 10.5966 8.90666 11.2965 8.77912C11.9965 8.65159 12.6411 8.31346 13.1442 7.81037C13.6471 7.30734 13.9849 6.66303 14.1124 5.96321C14.1942 5.51415 14.186 5.05604 14.0929 4.61409L12.15 6.55696C11.9319 6.77072 11.6385 6.89045 11.3331 6.89045C11.0278 6.89039 10.7348 6.77067 10.5167 6.55696L9.44299 5.48323C9.22929 5.26519 9.10954 4.97213 9.1095 4.66682ZM10.1095 4.66682C10.1095 4.70911 10.1256 4.74979 10.1544 4.78059L11.2169 5.84309L11.2418 5.86311C11.2688 5.88082 11.3004 5.89041 11.3331 5.89045C11.3767 5.89045 11.4187 5.87351 11.4498 5.84309L13.9596 3.33332L14.0055 3.2928C14.1172 3.20549 14.2616 3.16891 14.403 3.19465C14.5643 3.22406 14.701 3.33089 14.7687 3.4803C15.1458 4.31369 15.2603 5.24247 15.0963 6.14241C14.9323 7.04233 14.498 7.87107 13.8512 8.51789C13.2044 9.1647 12.3756 9.59904 11.4757 9.76301C10.6912 9.90594 9.88482 9.83748 9.13879 9.5677L4.76672 13.9403C4.40775 14.2992 3.92083 14.5008 3.41321 14.5008C2.90558 14.5008 2.41864 14.2992 2.05969 13.9403C1.70075 13.5813 1.49917 13.0944 1.49915 12.5867C1.49915 12.0791 1.70079 11.5922 2.05969 11.2332L6.43225 6.86018C6.16275 6.1144 6.09406 5.30847 6.23694 4.52424C6.40091 3.62433 6.83525 2.79557 7.48206 2.14875C8.12887 1.50194 8.95764 1.06762 9.85754 0.903636C10.7575 0.739666 11.6863 0.854147 12.5197 1.23127C12.6691 1.29897 12.7759 1.43559 12.8053 1.597C12.8347 1.75847 12.7832 1.92429 12.6671 2.04036L10.1569 4.55012L10.1368 4.57502C10.1191 4.60203 10.1095 4.63403 10.1095 4.66682Z" fill="white"/>
</svg>
