<svg width="18" height="18" viewBox="0 0 18 18" fill="none" xmlns="http://www.w3.org/2000/svg">
<path d="M9.9375 4.49982V1.5C9.9375 1.18934 10.1893 0.9375 10.5 0.9375C10.8107 0.9375 11.0625 1.18934 11.0625 1.5V4.49982C11.0625 4.74846 11.1613 4.98703 11.3372 5.16284C11.513 5.33866 11.7515 5.4375 12.0002 5.4375H15C15.3107 5.4375 15.5625 5.68934 15.5625 6C15.5625 6.31066 15.3107 6.5625 15 6.5625H12.0002C11.4532 6.5625 10.9285 6.34505 10.5417 5.95825C10.155 5.57146 9.9375 5.04683 9.9375 4.49982Z" fill="white"/>
<path d="M2.4375 5.25018V3.00018C2.4375 2.45317 2.65495 1.92854 3.04175 1.54175C3.42854 1.15495 3.95317 0.9375 4.50018 0.9375H11.2502L11.3057 0.940247C11.4344 0.953045 11.5556 1.01001 11.6479 1.10229L15.3975 4.85248C15.503 4.95797 15.5623 5.101 15.5623 5.25018V15C15.5623 15.547 15.3454 16.0716 14.9586 16.4584C14.5719 16.8452 14.0471 17.0626 13.5002 17.0627H4.49469C4.13358 17.0617 3.77888 16.9657 3.46637 16.7847C3.1539 16.6038 2.89435 16.3438 2.71381 16.0311C2.55862 15.7621 2.65087 15.4184 2.9198 15.2631C3.18882 15.1078 3.53294 15.1996 3.68829 15.4686C3.77038 15.6107 3.88845 15.7291 4.03052 15.8113C4.17247 15.8935 4.33343 15.9372 4.49744 15.9377H13.5002C13.7487 15.9376 13.9869 15.8387 14.1627 15.663C14.3385 15.4872 14.4373 15.2486 14.4373 15V5.48254L11.0173 2.0625H4.50018C4.25154 2.0625 4.01297 2.16134 3.83716 2.33716C3.66134 2.51297 3.5625 2.75154 3.5625 3.00018V5.25018C3.5624 5.56076 3.3106 5.81268 3 5.81268C2.6894 5.81268 2.4376 5.56076 2.4375 5.25018Z" fill="white"/>
<path d="M5.22725 11.9773C5.44692 11.7576 5.80299 11.7576 6.02266 11.9773L7.14766 13.1023C7.36733 13.3219 7.36733 13.678 7.14766 13.8977C6.92799 14.1173 6.57192 14.1173 6.35225 13.8977L5.22725 12.7727C5.00758 12.553 5.00758 12.1969 5.22725 11.9773Z" fill="white"/>
<path d="M5.4375 10.5C5.4375 9.56802 4.68198 8.8125 3.75 8.8125C2.81802 8.8125 2.0625 9.56802 2.0625 10.5C2.0625 11.432 2.81802 12.1875 3.75 12.1875C4.68198 12.1875 5.4375 11.432 5.4375 10.5ZM6.5625 10.5C6.5625 12.0533 5.3033 13.3125 3.75 13.3125C2.1967 13.3125 0.9375 12.0533 0.9375 10.5C0.9375 8.9467 2.1967 7.6875 3.75 7.6875C5.3033 7.6875 6.5625 8.9467 6.5625 10.5Z" fill="white"/>
</svg>
