<svg width="48" height="48" viewBox="0 0 48 48" fill="none" xmlns="http://www.w3.org/2000/svg">
<rect width="48" height="48" rx="12" fill="#D4EAFB"/>
<path d="M33.3334 26.6667C35.32 24.72 37.3334 22.3867 37.3334 19.3333C37.3334 17.3884 36.5607 15.5232 35.1855 14.1479C33.8102 12.7726 31.9449 12 30 12C27.6534 12 26 12.6667 24 14.6667C22 12.6667 20.3467 12 18 12C16.0551 12 14.1898 12.7726 12.8146 14.1479C11.4393 15.5232 10.6667 17.3884 10.6667 19.3333C10.6667 22.4 12.6667 24.7333 14.6667 26.6667L24 36L33.3334 26.6667Z" stroke="#2482CD" stroke-width="2" stroke-linecap="round" stroke-linejoin="round"/>
<path d="M24 14.6667L20.0533 18.6134C19.7824 18.8824 19.5674 19.2022 19.4207 19.5547C19.274 19.9071 19.1984 20.285 19.1984 20.6667C19.1984 21.0485 19.274 21.4264 19.4207 21.7788C19.5674 22.1313 19.7824 22.4511 20.0533 22.7201C21.1467 23.8134 22.8933 23.8534 24.0533 22.8134L26.8133 20.2801C27.5051 19.6523 28.4058 19.3046 29.34 19.3046C30.2742 19.3046 31.1749 19.6523 31.8667 20.2801L35.8133 23.8267" stroke="#2482CD" stroke-width="2" stroke-linecap="round" stroke-linejoin="round"/>
<path d="M32 27.9999L29.3333 25.3333" stroke="#2482CD" stroke-width="2" stroke-linecap="round" stroke-linejoin="round"/>
<path d="M28 31.9999L25.3333 29.3333" stroke="#2482CD" stroke-width="2" stroke-linecap="round" stroke-linejoin="round"/>
</svg>
