<svg width="18" height="18" viewBox="0 0 18 18" fill="none" xmlns="http://www.w3.org/2000/svg">
<g clip-path="url(#clip0_0_8)">
<path d="M7.74691 1.03286C9.56862 0.745855 11.434 1.09174 13.0313 2.01339C13.3003 2.16865 13.3925 2.51285 13.2373 2.78189C13.0821 3.05097 12.7379 3.14314 12.4688 2.98788C11.0944 2.19488 9.4896 1.89719 7.92214 2.14413C6.35462 2.39109 4.91905 3.168 3.855 4.34524C2.79098 5.52247 2.16245 7.02903 2.07467 8.61343C1.98692 10.1978 2.44525 11.7644 3.3727 13.0519C4.30018 14.3395 5.64116 15.27 7.17177 15.6886C8.70237 16.1072 10.3302 15.9888 11.7838 15.3524C13.2375 14.7161 14.4292 13.6002 15.1599 12.1917C15.8906 10.7832 16.1161 9.16682 15.7993 7.61202C15.7373 7.30768 15.9339 7.01055 16.2382 6.94845C16.5426 6.88642 16.8398 7.08295 16.9018 7.38735C17.27 9.19438 17.0079 11.0733 16.1586 12.7102C15.3093 14.3472 13.9242 15.6434 12.2348 16.383C10.5455 17.1225 8.6534 17.2606 6.87459 16.7741C5.09581 16.2875 3.53759 15.2058 2.45974 13.7094C1.38185 12.2131 0.849289 10.3922 0.951314 8.55081C1.05338 6.70954 1.78405 4.95912 3.02059 3.59103C4.25717 2.22291 5.92523 1.31988 7.74691 1.03286Z" fill="white"/>
<path d="M16.1021 2.60221C16.3218 2.38257 16.6779 2.38263 16.8976 2.60221C17.1172 2.82188 17.1172 3.17795 16.8976 3.39762L9.39774 10.8974C9.17807 11.1171 8.822 11.1171 8.60233 10.8974L6.35233 8.64743C6.13275 8.42776 6.13269 8.07166 6.35233 7.85202C6.57198 7.63248 6.92809 7.63248 7.14774 7.85202L9.00003 9.70432L16.1021 2.60221Z" fill="white"/>
</g>
<defs>
<clipPath id="clip0_0_8">
<rect width="18" height="18" fill="white"/>
</clipPath>
</defs>
</svg>
