<svg width="40" height="40" viewBox="0 0 40 40" fill="none" xmlns="http://www.w3.org/2000/svg">
<rect width="40" height="40" rx="12" fill="#D4EAFB"/>
<path d="M22.5 21.667C22.6667 20.8337 23.0833 20.2503 23.75 19.5837C24.5833 18.8337 25 17.7503 25 16.667C25 15.3409 24.4732 14.0691 23.5355 13.1315C22.5979 12.1938 21.3261 11.667 20 11.667C18.6739 11.667 17.4021 12.1938 16.4645 13.1315C15.5268 14.0691 15 15.3409 15 16.667C15 17.5003 15.1667 18.5003 16.25 19.5837C16.8333 20.167 17.3333 20.8337 17.5 21.667" stroke="#2482CD" stroke-width="1.66667" stroke-linecap="round" stroke-linejoin="round"/>
<path d="M17.5 25H22.5" stroke="#2482CD" stroke-width="1.66667" stroke-linecap="round" stroke-linejoin="round"/>
<path d="M18.3333 28.333H21.6666" stroke="#2482CD" stroke-width="1.66667" stroke-linecap="round" stroke-linejoin="round"/>
</svg>
