<svg width="24" height="24" viewBox="0 0 24 24" fill="none" xmlns="http://www.w3.org/2000/svg">
<path d="M6.7836 15.5817C8.86458 15.5817 10.5672 13.8507 10.5672 11.7508C10.5672 10.6535 10.028 9.61303 8.94971 8.73334C7.87138 7.85365 7.05791 6.54831 6.7836 5.17676C6.50929 6.54831 5.70527 7.86311 4.61749 8.73334C3.5297 9.60357 3 10.663 3 11.7508C3 13.8507 4.70262 15.5817 6.7836 15.5817Z" stroke="#2482CD" stroke-width="1.33333" stroke-linecap="round" stroke-linejoin="round"/>
<path d="M12.0428 6.40585C12.6933 5.36643 13.1545 4.21992 13.4049 3.01953C13.8778 5.38428 15.2967 7.65444 17.1885 9.16788C19.0803 10.6813 20.0262 12.4785 20.0262 14.3703C20.0316 15.6778 19.6486 16.9575 18.9259 18.0471C18.2031 19.1367 17.1732 19.9872 15.9665 20.4908C14.7598 20.9943 13.4308 21.1282 12.1479 20.8755C10.8651 20.6229 9.68609 19.995 8.7605 19.0714" stroke="#2482CD" stroke-width="1.33333" stroke-linecap="round" stroke-linejoin="round"/>
</svg>
