<svg width="16" height="16" viewBox="0 0 16 16" fill="none" xmlns="http://www.w3.org/2000/svg">
<path d="M6.88622 0.918425C8.50552 0.663308 10.1636 0.970757 11.5835 1.79001C11.8226 1.92801 11.9045 2.23397 11.7666 2.47311C11.6286 2.7123 11.3227 2.79422 11.0835 2.65622C9.86177 1.95133 8.43528 1.68672 7.04198 1.90622C5.64863 2.12574 4.37257 2.81633 3.42675 3.86276C2.48095 4.90919 1.92226 6.24835 1.84423 7.65671C1.76624 9.06502 2.17364 10.4575 2.99804 11.602C3.82247 12.7465 5.01444 13.5737 6.37499 13.9458C7.73552 14.3178 9.18249 14.2126 10.4746 13.6469C11.7668 13.0813 12.826 12.0894 13.4756 10.8374C14.1251 9.58538 14.3255 8.14861 14.0439 6.76657C13.9888 6.49604 14.1636 6.23193 14.4341 6.17673C14.7047 6.12159 14.9688 6.29628 15.0239 6.56686C15.3512 8.17311 15.1182 9.84322 14.3633 11.2983C13.6084 12.7534 12.3771 13.9056 10.8755 14.563C9.37382 15.2203 7.69199 15.3431 6.11083 14.9106C4.52969 14.4781 3.14461 13.5166 2.18651 12.1865C1.22839 10.8564 0.755005 9.2378 0.845694 7.60104C0.936416 5.96436 1.5859 4.40843 2.68505 3.19235C3.78424 1.97624 5.26695 1.17356 6.88622 0.918425Z" fill="white"/>
<path d="M14.313 2.31315C14.5083 2.11792 14.8248 2.11797 15.0201 2.31315C15.2153 2.50842 15.2153 2.82492 15.0201 3.02019L8.35356 9.68669C8.1583 9.88195 7.84179 9.88195 7.64653 9.68669L5.64653 7.68669C5.45135 7.49142 5.45129 7.17489 5.64653 6.97966C5.84177 6.7845 6.15832 6.7845 6.35356 6.97966L8.00004 8.62614L14.313 2.31315Z" fill="white"/>
</svg>
