<svg width="48" height="48" viewBox="0 0 48 48" fill="none" xmlns="http://www.w3.org/2000/svg">
<rect width="48" height="48" rx="12" fill="#D4EAFB"/>
<path d="M28.636 25.1868L30.656 36.5548C30.6786 36.6886 30.6598 36.8262 30.6021 36.9491C30.5445 37.072 30.4506 37.1744 30.3332 37.2425C30.2158 37.3106 30.0804 37.3413 29.945 37.3304C29.8097 37.3195 29.681 37.2675 29.576 37.1814L24.8026 33.5988C24.5722 33.4266 24.2923 33.3336 24.0046 33.3336C23.717 33.3336 23.4371 33.4266 23.2066 33.5988L18.4253 37.1801C18.3204 37.266 18.1918 37.3179 18.0566 37.3288C17.9215 37.3398 17.7862 37.3092 17.6689 37.2413C17.5515 37.1733 17.4577 37.0712 17.3999 36.9485C17.3421 36.8259 17.323 36.6885 17.3453 36.5548L19.364 25.1868" stroke="#2482CD" stroke-width="2" stroke-linecap="round" stroke-linejoin="round"/>
<path d="M24 26.6667C28.4183 26.6667 32 23.085 32 18.6667C32 14.2485 28.4183 10.6667 24 10.6667C19.5817 10.6667 16 14.2485 16 18.6667C16 23.085 19.5817 26.6667 24 26.6667Z" stroke="#2482CD" stroke-width="2" stroke-linecap="round" stroke-linejoin="round"/>
</svg>
