<svg width="48" height="48" viewBox="0 0 48 48" fill="none" xmlns="http://www.w3.org/2000/svg">
<rect width="48" height="48" rx="12" fill="#D4EAFB"/>
<path d="M34.6666 25.3333C34.6666 31.9999 30 35.3333 24.4533 37.2666C24.1629 37.365 23.8474 37.3603 23.56 37.2533C18 35.3333 13.3333 31.9999 13.3333 25.3333V15.9999C13.3333 15.6463 13.4738 15.3072 13.7238 15.0571C13.9739 14.8071 14.313 14.6666 14.6666 14.6666C17.3333 14.6666 20.6666 13.0666 22.9866 11.0399C23.2691 10.7986 23.6285 10.666 24 10.666C24.3715 10.666 24.7308 10.7986 25.0133 11.0399C27.3466 13.0799 30.6666 14.6666 33.3333 14.6666C33.6869 14.6666 34.0261 14.8071 34.2761 15.0571C34.5262 15.3072 34.6666 15.6463 34.6666 15.9999V25.3333Z" stroke="#2482CD" stroke-width="2" stroke-linecap="round" stroke-linejoin="round"/>
<path d="M20 23.9999L22.6667 26.6666L28 21.3333" stroke="#2482CD" stroke-width="2" stroke-linecap="round" stroke-linejoin="round"/>
</svg>
