<svg width="48" height="48" viewBox="0 0 48 48" fill="none" xmlns="http://www.w3.org/2000/svg">
<rect width="48" height="48" rx="12" fill="#D4EAFB"/>
<path d="M26.6667 31.9999V15.9999C26.6667 15.2927 26.3857 14.6144 25.8856 14.1143C25.3855 13.6142 24.7073 13.3333 24 13.3333H13.3334C12.6261 13.3333 11.9478 13.6142 11.4477 14.1143C10.9476 14.6144 10.6667 15.2927 10.6667 15.9999V30.6666C10.6667 31.0202 10.8072 31.3593 11.0572 31.6094C11.3073 31.8594 11.6464 31.9999 12 31.9999H14.6667" stroke="#2482CD" stroke-width="2" stroke-linecap="round" stroke-linejoin="round"/>
<path d="M28 32H20" stroke="#2482CD" stroke-width="2" stroke-linecap="round" stroke-linejoin="round"/>
<path d="M33.3334 32.0001H36C36.3536 32.0001 36.6928 31.8596 36.9428 31.6096C37.1929 31.3595 37.3334 31.0204 37.3334 30.6667V25.8001C37.3328 25.4975 37.2294 25.2041 37.04 24.9681L32.4 19.1681C32.2753 19.0119 32.1171 18.8858 31.9371 18.799C31.7571 18.7122 31.5599 18.667 31.36 18.6667H26.6667" stroke="#2482CD" stroke-width="2" stroke-linecap="round" stroke-linejoin="round"/>
<path d="M30.6667 34.6666C32.1394 34.6666 33.3333 33.4727 33.3333 31.9999C33.3333 30.5272 32.1394 29.3333 30.6667 29.3333C29.1939 29.3333 28 30.5272 28 31.9999C28 33.4727 29.1939 34.6666 30.6667 34.6666Z" stroke="#2482CD" stroke-width="2" stroke-linecap="round" stroke-linejoin="round"/>
<path d="M17.3334 34.6666C18.8061 34.6666 20 33.4727 20 31.9999C20 30.5272 18.8061 29.3333 17.3334 29.3333C15.8606 29.3333 14.6667 30.5272 14.6667 31.9999C14.6667 33.4727 15.8606 34.6666 17.3334 34.6666Z" stroke="#2482CD" stroke-width="2" stroke-linecap="round" stroke-linejoin="round"/>
</svg>
