<svg width="24" height="24" viewBox="0 0 24 24" fill="none" xmlns="http://www.w3.org/2000/svg">
<path d="M3 12C3 13.78 3.52784 15.5201 4.51677 17.0001C5.50571 18.4802 6.91131 19.6337 8.55585 20.3149C10.2004 20.9961 12.01 21.1743 13.7558 20.8271C15.5016 20.4798 17.1053 19.6226 18.364 18.364C19.6226 17.1053 20.4798 15.5016 20.8271 13.7558C21.1743 12.01 20.9961 10.2004 20.3149 8.55585C19.6337 6.91131 18.4802 5.50571 17.0001 4.51677C15.5201 3.52784 13.78 3 12 3C9.61305 3 7.32387 3.94821 5.63604 5.63604C3.94821 7.32387 3 9.61305 3 12ZM17.8821 16.9821L7.01786 6.11786C8.49684 4.88678 10.3825 4.25291 12.3048 4.34065C14.2271 4.42839 16.0472 5.23141 17.4079 6.59209C18.7686 7.95278 19.5716 9.77288 19.6593 11.6952C19.7471 13.6175 19.1132 15.5032 17.8821 16.9821ZM7.01143 17.8886C5.45464 16.5665 4.48564 14.6811 4.31693 12.6457C4.14822 10.6103 4.79355 8.59102 6.11143 7.03071L16.9693 17.8886C15.577 19.065 13.8131 19.7104 11.9904 19.7104C10.1676 19.7104 8.40371 19.065 7.01143 17.8886Z" fill="#2482CD"/>
</svg>
