<svg width="32" height="32" viewBox="0 0 32 32" fill="none" xmlns="http://www.w3.org/2000/svg">
<path d="M26.667 15.333C26.6668 9.07393 21.5921 4 15.333 4C9.07405 4.0002 4.0002 9.07405 4 15.333C4 21.5921 9.07393 26.6668 15.333 26.667C21.5923 26.667 26.667 21.5923 26.667 15.333ZM28.667 15.333C28.667 22.6968 22.6968 28.667 15.333 28.667C7.96936 28.6668 2 22.6967 2 15.333C2.0002 7.96948 7.96948 2.0002 15.333 2C22.6967 2 28.6668 7.96936 28.667 15.333Z" fill="white"/>
<path d="M14.3334 7.93329C14.3334 7.381 14.7811 6.93329 15.3334 6.93329C15.8857 6.93329 16.3334 7.381 16.3334 7.93329V14.7155L20.7142 16.9059C21.2078 17.153 21.408 17.753 21.1615 18.2468C20.9145 18.7407 20.3137 18.941 19.8197 18.694L14.8861 16.2282C14.5474 16.0589 14.3335 15.7123 14.3334 15.3337V7.93329Z" fill="white"/>
</svg>
