<svg width="32" height="32" viewBox="0 0 32 32" fill="none" xmlns="http://www.w3.org/2000/svg">
<path d="M28.3337 10.667C28.3337 9.74652 27.5872 9 26.6667 9H5.33368C4.4132 9 3.66669 9.74652 3.66669 10.667V21.333C3.66669 22.2535 4.4132 23 5.33368 23H26.6667C27.5872 23 28.3337 22.2535 28.3337 21.333V10.667ZM30.3337 21.333C30.3337 23.3581 28.6917 25 26.6667 25H5.33368C3.30863 25 1.66669 23.3581 1.66669 21.333V10.667C1.66669 8.64195 3.30863 7 5.33368 7H26.6667C28.6917 7 30.3337 8.64195 30.3337 10.667V21.333Z" fill="white"/>
<path d="M17.6663 16.0003C17.6663 15.0799 16.9206 14.3335 16.0003 14.3333C15.0798 14.3333 14.3333 15.0798 14.3333 16.0003C14.3335 16.9206 15.0799 17.6663 16.0003 17.6663C16.9205 17.6661 17.6661 16.9205 17.6663 16.0003ZM19.6663 16.0003C19.6661 18.0251 18.0251 19.6661 16.0003 19.6663C13.9754 19.6663 12.3335 18.0252 12.3333 16.0003C12.3333 13.9753 13.9753 12.3333 16.0003 12.3333C18.0252 12.3335 19.6663 13.9754 19.6663 16.0003Z" fill="white"/>
<path d="M8.01367 15C8.5658 15.0002 9.01367 15.4478 9.01367 16C9.01367 16.5522 8.5658 16.9998 8.01367 17H8C7.44772 17 7 16.5523 7 16C7 15.4477 7.44772 15 8 15H8.01367ZM24.0137 15C24.5658 15.0002 25.0137 15.4478 25.0137 16C25.0137 16.5522 24.5658 16.9998 24.0137 17H24C23.4477 17 23 16.5523 23 16C23 15.4477 23.4477 15 24 15H24.0137Z" fill="white"/>
</svg>
