<svg width="18" height="18" viewBox="0 0 18 18" fill="none" xmlns="http://www.w3.org/2000/svg">
<g opacity="0.9">
<path d="M5.25 12.2246C6.9 12.2246 8.25 10.8521 8.25 9.18711C8.25 8.31711 7.8225 7.49211 6.9675 6.79461C6.1125 6.09711 5.4675 5.06211 5.25 3.97461C5.0325 5.06211 4.395 6.10461 3.5325 6.79461C2.67 7.48461 2.25 8.32461 2.25 9.18711C2.25 10.8521 3.6 12.2246 5.25 12.2246Z" stroke="white" stroke-width="1.35" stroke-linecap="round" stroke-linejoin="round"/>
<path d="M9.41994 4.95014C9.93576 4.12598 10.3014 3.21692 10.4999 2.26514C10.8749 4.14014 11.9999 5.94014 13.4999 7.14014C14.9999 8.34014 15.7499 9.76514 15.7499 11.2651C15.7542 12.3019 15.4506 13.3165 14.8775 14.1805C14.3045 15.0444 13.4878 15.7188 12.531 16.118C11.5743 16.5173 10.5205 16.6234 9.50332 16.4231C8.48614 16.2227 7.55134 15.7249 6.81744 14.9926" stroke="white" stroke-width="1.35" stroke-linecap="round" stroke-linejoin="round"/>
</g>
</svg>
