<svg width="48" height="48" viewBox="0 0 48 48" fill="none" xmlns="http://www.w3.org/2000/svg">
<rect width="48" height="48" rx="12" fill="#D4EAFB"/>
<path d="M13.1333 19.4934C12.9387 18.6168 12.9686 17.7052 13.2202 16.8432C13.4718 15.9812 13.937 15.1966 14.5726 14.5623C15.2083 13.928 15.9937 13.4645 16.8563 13.2147C17.7188 12.9649 18.6304 12.9369 19.5067 13.1334C19.9889 12.3791 20.6533 11.7584 21.4386 11.3284C22.2239 10.8985 23.1047 10.6731 24 10.6731C24.8953 10.6731 25.7761 10.8985 26.5614 11.3284C27.3467 11.7584 28.0111 12.3791 28.4933 13.1334C29.3709 12.9361 30.2841 12.9639 31.148 13.2143C32.0119 13.4647 32.7984 13.9296 33.4345 14.5656C34.0705 15.2016 34.5353 15.9881 34.7857 16.8521C35.0361 17.716 35.064 18.6292 34.8667 19.5067C35.6209 19.989 36.2417 20.6534 36.6716 21.4386C37.1016 22.2239 37.327 23.1048 37.327 24C37.327 24.8953 37.1016 25.7762 36.6716 26.5614C36.2417 27.3467 35.6209 28.0111 34.8667 28.4934C35.0631 29.3696 35.0351 30.2812 34.7853 31.1438C34.5355 32.0063 34.072 32.7918 33.4377 33.4274C32.8034 34.0631 32.0189 34.5282 31.1569 34.7798C30.2949 35.0314 29.3833 35.0613 28.5067 34.8667C28.025 35.6239 27.3601 36.2473 26.5735 36.6791C25.7869 37.111 24.904 37.3375 24.0067 37.3375C23.1093 37.3375 22.2264 37.111 21.4398 36.6791C20.6532 36.2473 19.9883 35.6239 19.5067 34.8667C18.6304 35.0632 17.7188 35.0352 16.8563 34.7854C15.9937 34.5356 15.2083 34.0721 14.5726 33.4378C13.937 32.8035 13.4718 32.0189 13.2202 31.1569C12.9686 30.2949 12.9387 29.3833 13.1333 28.5067C12.3733 28.0257 11.7472 27.3603 11.3134 26.5723C10.8796 25.7844 10.6521 24.8995 10.6521 24C10.6521 23.1006 10.8796 22.2157 11.3134 21.4278C11.7472 20.6398 12.3733 19.9744 13.1333 19.4934Z" stroke="#2482CD" stroke-width="2" stroke-linecap="round" stroke-linejoin="round"/>
<path d="M28 20L20 28" stroke="#2482CD" stroke-width="2" stroke-linecap="round" stroke-linejoin="round"/>
<path d="M20 20H20.0125" stroke="#2482CD" stroke-width="2" stroke-linecap="round" stroke-linejoin="round"/>
<path d="M28 28H28.0125" stroke="#2482CD" stroke-width="2" stroke-linecap="round" stroke-linejoin="round"/>
</svg>
