<svg width="40" height="40" viewBox="0 0 40 40" fill="none" xmlns="http://www.w3.org/2000/svg">
<g clip-path="url(#clip0_0_151)">
<g clip-path="url(#clip1_0_151)">
<rect width="40" height="40" fill="#F0F8FF"/>
<path d="M19.7349 36.4215L28.3581 31.7673C24.0566 31.8057 24.0529 21.9326 24.0529 21.9326H15.4151C15.4151 21.9326 15.4115 31.8057 11.1099 31.7673L19.7331 36.4215H19.7349Z" fill="#FBDEC1"/>
<path d="M19.7349 41.1505C26.3974 41.1505 32.3088 37.9325 36 32.9659C32.3124 31.0435 25.8693 28.3244 25.8693 28.3244L25.8583 28.3318L25.7121 26.6963C25.7121 26.6963 21.4362 28.3756 19.8172 32.3957L19.7349 32.4506C17.8235 28.5273 13.6627 26.6963 13.6627 26.6963L13.2972 28.3244C13.2972 28.3244 7.05691 31.0399 3.46803 32.964C7.15741 37.9325 13.0707 41.1523 19.7349 41.1523V41.1505Z" fill="#7AC28C"/>
<path d="M19.7386 27.1598C21.7285 27.1598 23.3183 26.4489 24.2941 25.1387C24.0547 23.3662 24.0547 21.9336 24.0547 21.9336H15.4169C15.4169 21.9336 15.4169 23.3644 15.1776 25.1333C16.1534 26.4471 17.745 27.1616 19.7386 27.1616V27.1598Z" fill="#F8C9A4"/>
<path d="M20.9337 33.3016C20.7838 33.3016 20.6431 33.2084 20.5901 33.0585C20.5225 32.8685 20.6212 32.6602 20.8112 32.5907L25.7158 30.8438L25.5696 29.2083C25.5513 29.0073 25.6994 28.8301 25.9004 28.8118C26.1014 28.7954 26.2786 28.9416 26.2969 29.1444L26.4668 31.0613C26.4815 31.2275 26.3828 31.381 26.2256 31.4377L21.0561 33.2796C21.0159 33.2943 20.9739 33.3016 20.9337 33.3016Z" fill="white"/>
<path d="M19.269 34.8752C19.2544 34.8752 19.2397 34.8752 19.2233 34.8733C19.0223 34.8496 18.8797 34.6668 18.9053 34.4658C18.9949 33.7331 19.1758 33.0168 19.4426 32.3352C19.5157 32.147 19.7276 32.0556 19.9158 32.1287C20.1041 32.2018 20.1973 32.4137 20.1223 32.602C19.8775 33.2269 19.7112 33.8829 19.629 34.5554C19.607 34.7399 19.448 34.877 19.2671 34.877L19.269 34.8752Z" fill="white"/>
<path d="M17.9533 32.8133C17.9222 32.8133 17.893 32.8096 17.8619 32.8023L12.5864 31.4446C12.3946 31.3953 12.2776 31.2034 12.3215 31.0115L12.7509 29.0983C12.7948 28.901 12.9903 28.7785 13.1876 28.8224C13.385 28.8662 13.5092 29.0618 13.4636 29.2591L13.1109 30.8269L18.0428 32.0969C18.2384 32.1481 18.3553 32.3473 18.306 32.5428C18.264 32.7073 18.1159 32.8169 17.9515 32.8169L17.9533 32.8133Z" fill="white"/>
<path d="M26.2804 17.0954C25.9168 18.6961 25.4819 20.412 25.1383 21.5468C24.3343 24.2092 22.6276 25.6985 19.7386 25.6985C16.8496 25.6985 15.1428 24.2092 14.3388 21.5468C13.9971 20.4157 13.5586 18.6815 13.1913 17.0716C13.1913 17.0716 11.4717 6.22461 19.7349 6.22461C27.9981 6.22461 26.2786 17.0954 26.2786 17.0954H26.2804Z" fill="#FBDEC1"/>
<path d="M25.8236 18.8284C27.978 18.7388 28.464 16.5972 28.0255 15.89C27.406 14.8905 26.295 15.5173 26.295 15.5173L25.5586 15.7713L25.3484 18.8668L25.8217 18.8265L25.8236 18.8284Z" fill="#FBDEC1"/>
<path d="M13.7212 18.8284C11.5668 18.7388 11.0807 16.5972 11.5192 15.89C12.1387 14.8905 13.2497 15.5173 13.2497 15.5173L13.9861 15.7713L14.1963 18.8668L13.723 18.8265L13.7212 18.8284Z" fill="#FBDEC1"/>
<path d="M26.2969 15.5164C25.851 8.14133 22.412 7.55293 22.412 7.55293C22.412 7.55293 18.5344 6.69773 15.2141 9.37112C15.2141 9.37112 13.6115 11.1089 13.2479 15.5164C13.2479 15.5164 12.8002 15.2643 12.316 15.3355C11.353 10.6941 11.3274 7.55658 15.6856 4.88137C20.1497 2.1422 23.3275 4.91974 23.3275 4.91974C23.3275 4.91974 29.0342 5.96863 27.3823 15.3684C26.8432 15.2076 26.2969 15.5164 26.2969 15.5164Z" fill="#416792"/>
</g>
</g>
<defs>
<clipPath id="clip0_0_151">
<rect width="40" height="40" rx="20" fill="white"/>
</clipPath>
<clipPath id="clip1_0_151">
<rect width="40" height="40" fill="white"/>
</clipPath>
</defs>
</svg>
