<svg width="48" height="48" viewBox="0 0 48 48" fill="none" xmlns="http://www.w3.org/2000/svg">
<rect width="48" height="48" rx="12" fill="#DBEAFE"/>
<g opacity="0.9">
<path d="M36.5728 31.4693L26.625 14.0606C26.4081 13.6778 26.0935 13.3595 25.7134 13.138C25.3333 12.9165 24.9013 12.7998 24.4613 12.7998C24.0214 12.7998 23.5894 12.9165 23.2092 13.138C22.8291 13.3595 22.5146 13.6778 22.2977 14.0606L12.3498 31.4693C12.1306 31.849 12.0156 32.2799 12.0166 32.7184C12.0176 33.1568 12.1345 33.5872 12.3554 33.966C12.5763 34.3447 12.8934 34.6583 13.2746 34.8749C13.6558 35.0916 14.0875 35.2037 14.5259 35.1997H34.4216C34.8579 35.1993 35.2865 35.084 35.6642 34.8656C36.0419 34.6471 36.3555 34.3331 36.5735 33.9551C36.7914 33.5771 36.9061 33.1484 36.906 32.7121C36.9059 32.2758 36.791 31.8471 36.5728 31.4693Z" stroke="#2482CD" stroke-width="1.89" stroke-linecap="round" stroke-linejoin="round"/>
<path d="M24.4736 20.2783V25.2522" stroke="#2482CD" stroke-width="1.89" stroke-linecap="round" stroke-linejoin="round"/>
<path d="M24.4736 30.2256H24.4876" stroke="#2482CD" stroke-width="1.89" stroke-linecap="round" stroke-linejoin="round"/>
</g>
</svg>
