<svg width="18" height="18" viewBox="0 0 18 18" fill="none" xmlns="http://www.w3.org/2000/svg">
<path d="M15.9377 6.75018C15.9377 6.50159 15.8388 6.26296 15.663 6.08716C15.4872 5.91134 15.2486 5.8125 15 5.8125H12.75C12.5831 5.8125 12.4246 5.73856 12.3177 5.61035L10.6115 3.5625H7.38867L5.68195 5.61035C5.57512 5.73841 5.41695 5.81245 5.25018 5.8125H3.00018C2.75154 5.8125 2.51297 5.91134 2.33716 6.08716C2.16134 6.26297 2.0625 6.50154 2.0625 6.75018V13.5002C2.06255 13.7487 2.16144 13.9869 2.33716 14.1627C2.51297 14.3385 2.75154 14.4373 3.00018 14.4373H15C15.2486 14.4373 15.4872 14.3385 15.663 14.1627C15.8387 13.9869 15.9376 13.7487 15.9377 13.5002V6.75018ZM17.0627 13.5002C17.0626 14.0471 16.8452 14.5719 16.4584 14.9586C16.0716 15.3454 15.547 15.5623 15 15.5623H3.00018C2.45326 15.5623 1.92852 15.3453 1.54175 14.9586C1.155 14.5719 0.937548 14.0471 0.9375 13.5002V6.75018C0.9375 6.20317 1.15495 5.67854 1.54175 5.29175C1.92854 4.90495 2.45317 4.6875 3.00018 4.6875H4.98651L6.69269 2.63965L6.73553 2.5946C6.83971 2.49451 6.97894 2.4375 7.125 2.4375H10.8752L10.9373 2.4408C11.0807 2.45676 11.2135 2.5276 11.3069 2.63965L13.0137 4.6875H15C15.547 4.6875 16.0716 4.90495 16.4584 5.29175C16.8452 5.67853 17.0627 6.20322 17.0627 6.75018V13.5002Z" fill="white"/>
<path d="M10.6875 9.75C10.6875 8.81802 9.93198 8.0625 9 8.0625C8.06802 8.0625 7.3125 8.81802 7.3125 9.75C7.3125 10.682 8.06802 11.4375 9 11.4375C9.93198 11.4375 10.6875 10.682 10.6875 9.75ZM11.8125 9.75C11.8125 11.3033 10.5533 12.5625 9 12.5625C7.4467 12.5625 6.1875 11.3033 6.1875 9.75C6.1875 8.1967 7.4467 6.9375 9 6.9375C10.5533 6.9375 11.8125 8.1967 11.8125 9.75Z" fill="white"/>
</svg>
