<svg width="18" height="18" viewBox="0 0 18 18" fill="none" xmlns="http://www.w3.org/2000/svg">
<path d="M10.2482 5.25008C10.2482 4.90653 10.3829 4.57642 10.6234 4.33107L12.8091 2.1448C12.3119 2.04004 11.7965 2.03134 11.2913 2.12337C10.504 2.26685 9.77916 2.64686 9.21326 3.21267C8.6473 3.77863 8.26689 4.50386 8.12341 5.29128C7.97994 6.07872 8.08018 6.89117 8.41016 7.62038C8.50665 7.83362 8.46077 8.08434 8.29535 8.2499L3.11255 13.4327C2.91976 13.6256 2.81152 13.8873 2.81152 14.16C2.81155 14.4327 2.91971 14.6944 3.11255 14.8873C3.30539 15.0801 3.56713 15.1883 3.83984 15.1883C4.11255 15.1883 4.37427 15.0801 4.56714 14.8873L9.74994 9.70449L9.81586 9.64846C9.97766 9.53016 10.1928 9.50526 10.3795 9.58968C11.1087 9.91967 11.9211 10.0199 12.7086 9.87642C13.496 9.73295 14.2212 9.35255 14.7872 8.78658C15.353 8.22067 15.733 7.49581 15.8765 6.70852C15.9685 6.20332 15.9593 5.68796 15.8545 5.19075L13.6688 7.37648C13.4234 7.61697 13.0933 7.75167 12.7498 7.75167C12.4063 7.7516 12.0766 7.61691 11.8313 7.37648L10.6234 6.16854C10.3829 5.92324 10.2482 5.59355 10.2482 5.25008ZM11.3732 5.25008C11.3732 5.29765 11.3913 5.34342 11.4237 5.37807L12.619 6.57338L12.647 6.59591C12.6773 6.61583 12.713 6.62662 12.7498 6.62667C12.7987 6.62667 12.846 6.60761 12.881 6.57338L15.7045 3.7499L15.7562 3.7043C15.8818 3.60608 16.0443 3.56494 16.2033 3.59389C16.3849 3.62697 16.5386 3.74716 16.6147 3.91524C17.039 4.85281 17.1678 5.89769 16.9833 6.91012C16.7989 7.92253 16.3103 8.85487 15.5826 9.58254C14.8549 10.3102 13.9226 10.7988 12.9102 10.9833C12.0275 11.1441 11.1204 11.0671 10.2811 10.7636L5.36255 15.6827C4.9587 16.0865 4.41092 16.3133 3.83984 16.3133C3.26876 16.3133 2.72096 16.0865 2.31714 15.6827C1.91333 15.2789 1.68655 14.7311 1.68652 14.16C1.68652 13.5889 1.91337 13.0411 2.31714 12.6373L7.23627 7.71761C6.93308 6.87861 6.8558 5.97194 7.01654 5.08968C7.201 4.07728 7.68964 3.14493 8.4173 2.41726C9.14496 1.6896 10.0773 1.20098 11.0897 1.0165C12.1021 0.832033 13.147 0.960823 14.0846 1.38509C14.2527 1.46125 14.3729 1.61495 14.4059 1.79653C14.439 1.97818 14.381 2.16474 14.2505 2.29531L11.4265 5.11879L11.4039 5.14681C11.3839 5.17719 11.3732 5.2132 11.3732 5.25008Z" fill="white"/>
</svg>
