<svg width="24" height="24" viewBox="0 0 24 24" fill="none" xmlns="http://www.w3.org/2000/svg">
<path d="M20.5188 12.1246C20.5186 7.48906 16.7602 3.73123 12.1246 3.73123C7.48915 3.73138 3.73138 7.48915 3.73123 12.1246C3.73123 16.7602 7.48906 20.5186 12.1246 20.5188C16.7603 20.5188 20.5188 16.7603 20.5188 12.1246ZM22 12.1246C22 17.5784 17.5784 22 12.1246 22C6.671 21.9999 2.25 17.5783 2.25 12.1246C2.25015 6.67109 6.67109 2.25015 12.1246 2.25C17.5783 2.25 21.9999 6.671 22 12.1246Z" fill="#2482CD"/>
<path d="M11.3843 6.64491C11.3843 6.23588 11.7159 5.9043 12.1249 5.9043C12.5339 5.9043 12.8655 6.23588 12.8655 6.64491V11.6679L16.11 13.2902C16.4756 13.4732 16.6239 13.9176 16.4413 14.2832C16.2584 14.6491 15.8134 14.7974 15.4475 14.6145L11.7936 12.7883C11.5428 12.6629 11.3844 12.4062 11.3843 12.1258V6.64491Z" fill="#2482CD"/>
</svg>
