<svg width="300" height="300" viewBox="0 0 300 300" fill="none" xmlns="http://www.w3.org/2000/svg">
<path d="M101.684 117.528H95.364V120.136H101.684V117.528ZM93.492 122.408V115.848H103.636V122.408H101.684V121.816H95.364V122.408H93.492ZM95.268 112.584H101.732C100.404 111.544 99.22 110.392 98.452 109.336C97.7 110.408 96.58 111.544 95.268 112.584ZM97.38 107.464H99.348C101.06 109.912 103.652 111.944 106.196 112.968C105.732 113.464 105.3 114.088 104.964 114.68C104.148 114.264 103.316 113.736 102.516 113.16V114.264H94.548V113.144C93.764 113.72 92.916 114.248 92.068 114.712C91.812 114.248 91.284 113.56 90.868 113.16C93.62 111.832 96.18 109.416 97.38 107.464ZM112.964 107.944V109.384H107.892V107.944H112.964ZM113.572 110.088V111.592H107.028V110.088H113.572ZM111.22 118.216H109.396V120.056H111.22V118.216ZM112.884 116.712V121.544H109.396V122.168H107.748V116.712H112.884ZM107.796 115.928V114.504H112.932V115.928H107.796ZM107.796 113.768V112.312H112.932V113.768H107.796ZM122.116 112.792V114.68H118.772V122.392H116.852V114.68H113.508V112.792H116.852V107.512H118.772V112.792H122.116ZM126.708 119.368H134.116V117.48H126.708V119.368ZM134.116 113.8H126.708V115.688H134.116V113.8ZM134.116 110.168H126.708V112.008H134.116V110.168ZM124.788 108.312H136.132V122.216H134.116V121.224H126.708V122.216H124.788V108.312ZM141.668 110.632V112.632H139.732V108.872H145.444V107.448H147.46V108.872H153.332V112.632H151.3V110.632H141.668ZM148.756 115.176H145.028C144.692 115.848 144.34 116.504 144.004 117.128C144.98 117.4 146.02 117.752 147.076 118.136C147.86 117.368 148.42 116.408 148.756 115.176ZM153.62 115.176H150.964C150.5 116.696 149.844 117.896 148.98 118.872C150.532 119.512 151.972 120.184 152.98 120.808L151.46 122.36C150.484 121.704 149.012 120.952 147.396 120.248C145.7 121.384 143.524 122.008 140.836 122.392C140.66 121.944 140.116 121.08 139.748 120.664C141.988 120.44 143.812 120.056 145.252 119.368C144.548 119.112 143.86 118.856 143.188 118.632L142.884 119.16L140.9 118.616C141.476 117.688 142.148 116.472 142.836 115.176H139.396V113.384H143.748C144.164 112.568 144.548 111.752 144.868 111.016L146.868 111.432C146.58 112.056 146.26 112.712 145.924 113.384H153.62V115.176ZM165.108 114.92C165.108 111.496 166.532 108.936 168.26 107.24L169.78 107.912C168.18 109.64 166.916 111.848 166.916 114.92C166.916 117.992 168.18 120.2 169.78 121.928L168.26 122.6C166.532 120.904 165.108 118.344 165.108 114.92ZM177.38 116.264L176.292 117.752C176.1 117.336 175.716 116.712 175.332 116.136V122.376H173.492V116.632C172.98 117.864 172.372 119 171.748 119.8C171.572 119.256 171.172 118.472 170.868 117.992C171.764 116.952 172.644 115.256 173.236 113.704H171.204V111.928H173.492V110.072C172.82 110.2 172.164 110.312 171.54 110.392C171.444 109.96 171.22 109.32 171.012 108.936C172.772 108.632 174.74 108.168 175.972 107.608L177.236 109.064C176.66 109.288 176.02 109.496 175.332 109.672V111.928H177.044V113.704H175.332V114.168C175.764 114.52 177.076 115.912 177.38 116.264ZM183.364 114.456V112.28H179.412V114.456H183.364ZM183.7 120.472H184.212C184.452 120.472 184.516 120.232 184.548 118.568C184.9 118.856 185.684 119.176 186.164 119.288C186.004 121.576 185.572 122.184 184.42 122.184H183.364C181.94 122.184 181.636 121.624 181.636 119.96V116.12H180.756C180.532 118.872 179.86 121.112 176.98 122.408C176.788 121.944 176.26 121.272 175.876 120.904C178.26 119.928 178.708 118.216 178.884 116.12H177.604V110.632H178.836C178.58 109.912 178.068 108.92 177.588 108.152L179.156 107.464C179.732 108.312 180.372 109.416 180.612 110.184L179.588 110.632H183.348L182.1 110.184C182.548 109.432 183.124 108.28 183.412 107.448L185.364 108.072C184.836 109 184.26 109.96 183.796 110.632H185.268V116.12H183.46V119.944C183.46 120.424 183.492 120.472 183.7 120.472ZM195.316 111.432L195.94 111.528C195.876 111 195.812 110.456 195.764 109.912H192.98V108.12H197.38C197.62 112.648 198.58 116.504 201.908 118.168C201.46 118.488 200.772 119.16 200.42 119.624C198.452 118.456 197.284 116.616 196.58 114.376C195.78 116.664 194.564 118.424 192.82 119.64C192.532 119.272 191.796 118.536 191.348 118.2C193.588 116.872 194.82 114.488 195.316 111.432ZM191.348 110.232L189.844 111.496C189.348 110.728 188.212 109.672 187.268 108.968L188.676 107.816C189.636 108.488 190.804 109.48 191.348 110.232ZM190.948 113.656V118.68C191.604 119.752 192.804 120.184 194.468 120.248C196.34 120.328 199.94 120.28 202.068 120.12C201.86 120.568 201.572 121.496 201.476 122.04C199.556 122.136 196.34 122.168 194.436 122.088C192.468 122.008 191.156 121.56 190.116 120.312C189.412 120.936 188.708 121.56 187.828 122.232L186.9 120.248C187.588 119.848 188.388 119.32 189.092 118.776V115.4H187.252V113.656H190.948ZM207.892 114.92C207.892 118.344 206.468 120.904 204.74 122.6L203.22 121.928C204.82 120.2 206.084 117.992 206.084 114.92C206.084 111.848 204.82 109.64 203.22 107.912L204.74 107.24C206.468 108.936 207.892 111.496 207.892 114.92Z" fill="#222222"/>
<path d="M88.3864 137.727V161H83.4659V142.398H83.3295L78 145.739V141.375L83.7614 137.727H88.3864ZM93.5653 156.909V153.034L103.281 137.727H106.622V143.091H104.645L98.5199 152.784V152.966H112.327V156.909H93.5653ZM104.736 161V155.727L104.827 154.011V137.727H109.44V161H104.736ZM124.73 161.511C122.776 161.504 121.094 161.023 119.685 160.068C118.283 159.114 117.204 157.731 116.446 155.92C115.696 154.11 115.325 151.932 115.332 149.386C115.332 146.848 115.707 144.686 116.457 142.898C117.215 141.11 118.295 139.75 119.696 138.818C121.105 137.879 122.783 137.409 124.73 137.409C126.677 137.409 128.351 137.879 129.753 138.818C131.162 139.758 132.245 141.121 133.003 142.909C133.76 144.689 134.135 146.848 134.128 149.386C134.128 151.939 133.749 154.121 132.991 155.932C132.241 157.742 131.166 159.125 129.764 160.08C128.363 161.034 126.685 161.511 124.73 161.511ZM124.73 157.432C126.063 157.432 127.128 156.761 127.923 155.42C128.719 154.08 129.113 152.068 129.105 149.386C129.105 147.621 128.923 146.152 128.56 144.977C128.204 143.803 127.696 142.92 127.037 142.33C126.385 141.739 125.616 141.443 124.73 141.443C123.404 141.443 122.344 142.106 121.548 143.432C120.753 144.758 120.351 146.742 120.344 149.386C120.344 151.174 120.522 152.667 120.878 153.864C121.241 155.053 121.753 155.947 122.412 156.545C123.071 157.136 123.844 157.432 124.73 157.432ZM142.006 157.818L141.881 159.068C141.782 160.068 141.593 161.064 141.312 162.057C141.04 163.057 140.752 163.962 140.449 164.773C140.153 165.583 139.915 166.22 139.733 166.682H136.597C136.71 166.235 136.866 165.61 137.062 164.807C137.259 164.011 137.445 163.117 137.619 162.125C137.794 161.133 137.903 160.121 137.949 159.091L138.006 157.818H142.006ZM146.034 156.909V153.034L155.75 137.727H159.091V143.091H157.114L150.989 152.784V152.966H164.795V156.909H146.034ZM157.205 161V155.727L157.295 154.011V137.727H161.909V161H157.205ZM177.886 137.727V161H172.966V142.398H172.83L167.5 145.739V141.375L173.261 137.727H177.886ZM192.02 161.318C190.323 161.318 188.812 161.027 187.486 160.443C186.168 159.852 185.126 159.042 184.361 158.011C183.603 156.973 183.213 155.777 183.19 154.42H188.145C188.175 154.989 188.361 155.489 188.702 155.92C189.05 156.345 189.512 156.674 190.088 156.909C190.664 157.144 191.312 157.261 192.031 157.261C192.781 157.261 193.444 157.129 194.02 156.864C194.596 156.598 195.046 156.231 195.372 155.761C195.698 155.292 195.861 154.75 195.861 154.136C195.861 153.515 195.687 152.966 195.338 152.489C194.997 152.004 194.505 151.625 193.861 151.352C193.224 151.08 192.467 150.943 191.588 150.943H189.418V147.33H191.588C192.33 147.33 192.986 147.201 193.554 146.943C194.13 146.686 194.577 146.33 194.895 145.875C195.213 145.413 195.372 144.875 195.372 144.261C195.372 143.678 195.232 143.167 194.952 142.727C194.679 142.28 194.293 141.932 193.793 141.682C193.3 141.432 192.724 141.307 192.065 141.307C191.399 141.307 190.789 141.428 190.236 141.67C189.683 141.905 189.24 142.242 188.906 142.682C188.573 143.121 188.395 143.636 188.372 144.227H183.656C183.679 142.886 184.062 141.705 184.804 140.682C185.546 139.659 186.546 138.86 187.804 138.284C189.069 137.701 190.497 137.409 192.088 137.409C193.694 137.409 195.099 137.701 196.304 138.284C197.509 138.867 198.444 139.655 199.111 140.648C199.785 141.633 200.118 142.739 200.111 143.966C200.118 145.269 199.713 146.356 198.895 147.227C198.084 148.098 197.027 148.652 195.724 148.886V149.068C197.437 149.288 198.74 149.883 199.634 150.852C200.535 151.814 200.982 153.019 200.974 154.466C200.982 155.792 200.599 156.97 199.827 158C199.062 159.03 198.005 159.841 196.656 160.432C195.308 161.023 193.762 161.318 192.02 161.318ZM213.745 152.72H218.745V147.68H213.745V152.72ZM206.665 147.68V152.72H211.385V147.68H206.665ZM221.145 145.32V159.94C221.145 161.24 220.865 161.9 220.025 162.28C219.225 162.68 218.025 162.72 216.245 162.72C216.125 162.06 215.725 160.96 215.385 160.34C216.525 160.42 217.825 160.4 218.225 160.4C218.605 160.38 218.745 160.26 218.745 159.92V155.08H206.665V162.72H204.265V145.32H221.145Z" fill="#1B2475"/>
<path d="M80 183.5C80 181.291 81.7909 179.5 84 179.5C86.2091 179.5 88 181.291 88 183.5C88 185.709 86.2091 187.5 84 187.5C81.7909 187.5 80 185.709 80 183.5Z" fill="#FD8B00"/>
<path d="M105.034 179.536C104.978 179.601 104.913 179.681 104.838 179.774C104.773 179.867 104.712 179.956 104.656 180.04C104.479 180.357 104.213 180.749 103.858 181.216C103.513 181.673 103.111 182.145 102.654 182.63C102.197 183.106 101.702 183.531 101.17 183.904L100.246 183.162C100.573 182.975 100.89 182.751 101.198 182.49C101.515 182.219 101.809 181.939 102.08 181.65C102.36 181.351 102.603 181.062 102.808 180.782C103.023 180.493 103.191 180.241 103.312 180.026C103.163 180.026 102.92 180.026 102.584 180.026C102.257 180.026 101.865 180.026 101.408 180.026C100.96 180.026 100.479 180.026 99.966 180.026C99.4527 180.026 98.944 180.026 98.44 180.026C97.936 180.026 97.4647 180.026 97.026 180.026C96.5873 180.026 96.2187 180.026 95.92 180.026C95.6213 180.026 95.4253 180.026 95.332 180.026C95.0707 180.026 94.8093 180.035 94.548 180.054C94.2867 180.063 94.016 180.082 93.736 180.11V178.836C93.9787 178.873 94.24 178.906 94.52 178.934C94.8 178.953 95.0707 178.962 95.332 178.962C95.4253 178.962 95.626 178.962 95.934 178.962C96.242 178.962 96.6153 178.962 97.054 178.962C97.502 178.962 97.9873 178.962 98.51 178.962C99.0327 178.962 99.5507 178.962 100.064 178.962C100.587 178.962 101.077 178.962 101.534 178.962C101.991 178.962 102.379 178.962 102.696 178.962C103.023 178.962 103.247 178.962 103.368 178.962C103.461 178.962 103.569 178.962 103.69 178.962C103.821 178.953 103.947 178.939 104.068 178.92C104.189 178.901 104.283 178.887 104.348 178.878L105.034 179.536ZM99.448 181.384C99.448 182.14 99.4247 182.849 99.378 183.512C99.3313 184.175 99.238 184.795 99.098 185.374C98.958 185.953 98.7433 186.489 98.454 186.984C98.174 187.469 97.796 187.927 97.32 188.356C96.844 188.776 96.2513 189.163 95.542 189.518L94.506 188.678C94.702 188.613 94.912 188.529 95.136 188.426C95.36 188.314 95.57 188.188 95.766 188.048C96.3167 187.721 96.7553 187.353 97.082 186.942C97.4087 186.531 97.6513 186.088 97.81 185.612C97.978 185.127 98.09 184.618 98.146 184.086C98.2113 183.545 98.244 182.985 98.244 182.406C98.244 182.229 98.2393 182.061 98.23 181.902C98.23 181.743 98.216 181.571 98.188 181.384H99.448ZM118.054 179.69C118.007 179.793 117.965 179.9 117.928 180.012C117.9 180.124 117.872 180.25 117.844 180.39C117.769 180.763 117.671 181.174 117.55 181.622C117.429 182.061 117.279 182.518 117.102 182.994C116.934 183.461 116.733 183.918 116.5 184.366C116.276 184.805 116.029 185.201 115.758 185.556C115.329 186.097 114.853 186.606 114.33 187.082C113.807 187.549 113.21 187.969 112.538 188.342C111.866 188.715 111.101 189.037 110.242 189.308L109.29 188.258C110.205 188.025 110.993 187.745 111.656 187.418C112.328 187.082 112.916 186.699 113.42 186.27C113.924 185.841 114.367 185.379 114.75 184.884C115.086 184.464 115.375 183.983 115.618 183.442C115.87 182.901 116.075 182.359 116.234 181.818C116.402 181.267 116.519 180.768 116.584 180.32C116.453 180.32 116.206 180.32 115.842 180.32C115.478 180.32 115.049 180.32 114.554 180.32C114.059 180.32 113.541 180.32 113 180.32C112.468 180.32 111.955 180.32 111.46 180.32C110.965 180.32 110.536 180.32 110.172 180.32C109.808 180.32 109.561 180.32 109.43 180.32C109.15 180.32 108.893 180.325 108.66 180.334C108.427 180.343 108.217 180.353 108.03 180.362V179.13C108.161 179.139 108.305 179.153 108.464 179.172C108.623 179.191 108.786 179.205 108.954 179.214C109.122 179.214 109.281 179.214 109.43 179.214C109.542 179.214 109.743 179.214 110.032 179.214C110.321 179.214 110.662 179.214 111.054 179.214C111.455 179.214 111.88 179.214 112.328 179.214C112.785 179.214 113.233 179.214 113.672 179.214C114.12 179.214 114.535 179.214 114.918 179.214C115.31 179.214 115.641 179.214 115.912 179.214C116.183 179.214 116.365 179.214 116.458 179.214C116.561 179.214 116.677 179.214 116.808 179.214C116.939 179.205 117.069 179.181 117.2 179.144L118.054 179.69ZM125.81 182.588C126.258 182.849 126.729 183.139 127.224 183.456C127.719 183.773 128.209 184.105 128.694 184.45C129.189 184.786 129.66 185.117 130.108 185.444C130.556 185.771 130.953 186.079 131.298 186.368L130.472 187.334C130.155 187.045 129.772 186.727 129.324 186.382C128.885 186.027 128.419 185.673 127.924 185.318C127.429 184.954 126.935 184.604 126.44 184.268C125.945 183.932 125.483 183.629 125.054 183.358L125.81 182.588ZM132.222 180.026C132.157 180.129 132.096 180.255 132.04 180.404C131.984 180.544 131.933 180.67 131.886 180.782C131.755 181.258 131.569 181.771 131.326 182.322C131.083 182.873 130.799 183.428 130.472 183.988C130.145 184.539 129.772 185.071 129.352 185.584C128.727 186.359 127.943 187.105 127 187.824C126.067 188.533 124.937 189.131 123.612 189.616L122.604 188.748C123.472 188.477 124.261 188.146 124.97 187.754C125.689 187.353 126.333 186.914 126.902 186.438C127.471 185.962 127.966 185.472 128.386 184.968C128.75 184.539 129.081 184.067 129.38 183.554C129.688 183.041 129.954 182.532 130.178 182.028C130.402 181.515 130.565 181.039 130.668 180.6H125.474L125.922 179.606H130.374C130.561 179.606 130.733 179.597 130.892 179.578C131.051 179.55 131.186 179.513 131.298 179.466L132.222 180.026ZM127.504 178.01C127.383 178.197 127.266 178.393 127.154 178.598C127.042 178.803 126.949 178.971 126.874 179.102C126.594 179.615 126.23 180.18 125.782 180.796C125.343 181.403 124.825 182.009 124.228 182.616C123.64 183.223 122.973 183.787 122.226 184.31L121.288 183.582C122.091 183.087 122.786 182.541 123.374 181.944C123.962 181.347 124.457 180.763 124.858 180.194C125.259 179.625 125.567 179.13 125.782 178.71C125.857 178.589 125.941 178.421 126.034 178.206C126.127 177.982 126.193 177.781 126.23 177.604L127.504 178.01ZM135.428 182.938C135.568 182.947 135.741 182.961 135.946 182.98C136.151 182.989 136.375 182.999 136.618 183.008C136.87 183.008 137.122 183.008 137.374 183.008C137.523 183.008 137.752 183.008 138.06 183.008C138.377 183.008 138.746 183.008 139.166 183.008C139.586 183.008 140.029 183.008 140.496 183.008C140.972 183.008 141.443 183.008 141.91 183.008C142.386 183.008 142.834 183.008 143.254 183.008C143.683 183.008 144.052 183.008 144.36 183.008C144.668 183.008 144.897 183.008 145.046 183.008C145.401 183.008 145.704 182.999 145.956 182.98C146.208 182.961 146.409 182.947 146.558 182.938V184.31C146.418 184.301 146.208 184.287 145.928 184.268C145.657 184.249 145.368 184.24 145.06 184.24C144.911 184.24 144.677 184.24 144.36 184.24C144.043 184.24 143.674 184.24 143.254 184.24C142.843 184.24 142.4 184.24 141.924 184.24C141.448 184.24 140.972 184.24 140.496 184.24C140.029 184.24 139.586 184.24 139.166 184.24C138.755 184.24 138.391 184.24 138.074 184.24C137.757 184.24 137.523 184.24 137.374 184.24C136.991 184.24 136.627 184.249 136.282 184.268C135.937 184.277 135.652 184.291 135.428 184.31V182.938ZM156.372 182.042H157.422V190.12H156.372V182.042ZM152.284 184.1H161.356V185.066H152.284V184.1ZM157.73 184.492C158.01 185.052 158.365 185.603 158.794 186.144C159.223 186.676 159.695 187.166 160.208 187.614C160.721 188.053 161.23 188.412 161.734 188.692C161.659 188.757 161.571 188.841 161.468 188.944C161.375 189.037 161.286 189.135 161.202 189.238C161.118 189.341 161.048 189.439 160.992 189.532C160.479 189.196 159.965 188.776 159.452 188.272C158.948 187.768 158.477 187.217 158.038 186.62C157.599 186.023 157.226 185.416 156.918 184.8L157.73 184.492ZM156.134 184.408L156.96 184.716C156.643 185.36 156.251 185.99 155.784 186.606C155.317 187.213 154.809 187.768 154.258 188.272C153.717 188.767 153.166 189.177 152.606 189.504C152.55 189.411 152.48 189.313 152.396 189.21C152.312 189.117 152.223 189.023 152.13 188.93C152.046 188.827 151.962 188.743 151.878 188.678C152.429 188.398 152.975 188.034 153.516 187.586C154.057 187.138 154.552 186.639 155 186.088C155.457 185.537 155.835 184.977 156.134 184.408ZM154.328 178.836V181.412H159.536V178.836H154.328ZM153.32 177.898H160.586V182.364H153.32V177.898ZM151.878 177.282L152.858 177.59C152.55 178.374 152.186 179.149 151.766 179.914C151.346 180.679 150.893 181.398 150.408 182.07C149.923 182.742 149.423 183.339 148.91 183.862C148.882 183.778 148.831 183.671 148.756 183.54C148.691 183.409 148.616 183.279 148.532 183.148C148.457 183.017 148.387 182.91 148.322 182.826C148.789 182.378 149.241 181.86 149.68 181.272C150.119 180.675 150.525 180.04 150.898 179.368C151.281 178.687 151.607 177.991 151.878 177.282ZM150.422 180.894L151.402 179.9L151.43 179.914V190.078H150.422V180.894ZM168.104 178.094H175.258V179.102H168.104V178.094ZM167.628 188.636H175.496V189.63H167.628V188.636ZM171.954 182.952H175.174V183.96H171.954V182.952ZM171.366 178.486H172.402V189.21H171.366V178.486ZM168.692 181.608H169.686V189.098H168.692V181.608ZM163.204 181.552H167.152V182.392H163.204V181.552ZM163.288 177.73H167.138V178.57H163.288V177.73ZM163.204 183.47H167.152V184.296H163.204V183.47ZM162.532 179.606H167.628V180.474H162.532V179.606ZM163.694 185.388H167.208V189.462H163.694V188.608H166.27V186.256H163.694V185.388ZM163.176 185.388H164.1V190.106H163.176V185.388ZM181.586 180.726C181.987 180.763 182.379 180.791 182.762 180.81C183.145 180.829 183.546 180.838 183.966 180.838C184.806 180.838 185.641 180.805 186.472 180.74C187.303 180.675 188.073 180.572 188.782 180.432V181.51C188.035 181.631 187.247 181.72 186.416 181.776C185.595 181.832 184.769 181.865 183.938 181.874C183.537 181.874 183.145 181.865 182.762 181.846C182.389 181.827 181.997 181.804 181.586 181.776V180.726ZM186.486 178.22C186.467 178.36 186.449 178.5 186.43 178.64C186.421 178.78 186.411 178.92 186.402 179.06C186.393 179.228 186.383 179.443 186.374 179.704C186.365 179.965 186.36 180.245 186.36 180.544C186.36 180.833 186.36 181.118 186.36 181.398C186.36 181.93 186.369 182.462 186.388 182.994C186.407 183.526 186.43 184.044 186.458 184.548C186.486 185.052 186.509 185.528 186.528 185.976C186.556 186.415 186.57 186.816 186.57 187.18C186.57 187.46 186.528 187.735 186.444 188.006C186.369 188.277 186.239 188.519 186.052 188.734C185.875 188.949 185.627 189.117 185.31 189.238C185.002 189.369 184.615 189.434 184.148 189.434C183.205 189.434 182.482 189.257 181.978 188.902C181.483 188.547 181.236 188.057 181.236 187.432C181.236 187.04 181.348 186.685 181.572 186.368C181.805 186.041 182.132 185.785 182.552 185.598C182.981 185.411 183.504 185.318 184.12 185.318C184.717 185.318 185.263 185.388 185.758 185.528C186.262 185.659 186.724 185.836 187.144 186.06C187.573 186.275 187.965 186.517 188.32 186.788C188.675 187.049 189.001 187.311 189.3 187.572L188.684 188.51C188.199 188.043 187.709 187.637 187.214 187.292C186.729 186.947 186.225 186.676 185.702 186.48C185.179 186.284 184.624 186.186 184.036 186.186C183.504 186.186 183.07 186.293 182.734 186.508C182.407 186.713 182.244 186.984 182.244 187.32C182.244 187.675 182.403 187.95 182.72 188.146C183.037 188.333 183.448 188.426 183.952 188.426C184.353 188.426 184.661 188.361 184.876 188.23C185.1 188.099 185.254 187.922 185.338 187.698C185.431 187.474 185.478 187.208 185.478 186.9C185.478 186.648 185.469 186.307 185.45 185.878C185.431 185.449 185.408 184.982 185.38 184.478C185.352 183.965 185.329 183.442 185.31 182.91C185.291 182.378 185.282 181.879 185.282 181.412C185.282 180.936 185.282 180.488 185.282 180.068C185.282 179.648 185.282 179.317 185.282 179.074C185.282 178.953 185.277 178.813 185.268 178.654C185.259 178.486 185.245 178.341 185.226 178.22H186.486ZM179.57 178.304C179.542 178.379 179.509 178.477 179.472 178.598C179.444 178.71 179.416 178.827 179.388 178.948C179.369 179.069 179.351 179.172 179.332 179.256C179.276 179.517 179.215 179.83 179.15 180.194C179.094 180.549 179.033 180.936 178.968 181.356C178.903 181.767 178.842 182.187 178.786 182.616C178.739 183.036 178.702 183.442 178.674 183.834C178.646 184.226 178.632 184.581 178.632 184.898C178.632 185.234 178.641 185.556 178.66 185.864C178.688 186.172 178.725 186.499 178.772 186.844C178.847 186.629 178.931 186.401 179.024 186.158C179.117 185.915 179.211 185.673 179.304 185.43C179.407 185.187 179.495 184.973 179.57 184.786L180.144 185.234C180.032 185.551 179.906 185.911 179.766 186.312C179.635 186.704 179.509 187.082 179.388 187.446C179.276 187.801 179.197 188.095 179.15 188.328C179.131 188.421 179.113 188.529 179.094 188.65C179.085 188.771 179.085 188.874 179.094 188.958C179.094 189.023 179.094 189.103 179.094 189.196C179.103 189.289 179.113 189.373 179.122 189.448L178.142 189.518C178.002 189.014 177.876 188.389 177.764 187.642C177.661 186.886 177.61 186.037 177.61 185.094C177.61 184.571 177.633 184.03 177.68 183.47C177.736 182.901 177.797 182.345 177.862 181.804C177.937 181.263 178.007 180.768 178.072 180.32C178.147 179.863 178.207 179.489 178.254 179.2C178.273 179.041 178.291 178.873 178.31 178.696C178.329 178.519 178.338 178.355 178.338 178.206L179.57 178.304ZM193.584 177.24L194.606 177.534C194.354 178.057 194.055 178.57 193.71 179.074C193.365 179.569 192.996 180.031 192.604 180.46C192.221 180.889 191.834 181.267 191.442 181.594C191.386 181.529 191.302 181.454 191.19 181.37C191.087 181.277 190.98 181.188 190.868 181.104C190.765 181.02 190.672 180.955 190.588 180.908C191.185 180.46 191.75 179.914 192.282 179.27C192.814 178.626 193.248 177.949 193.584 177.24ZM193.094 178.85H202.74V179.802H192.744L193.094 178.85ZM190.756 182.154H203.258V183.12H190.756V182.154ZM190.966 185.5H203.076V186.466H190.966V185.5ZM195.208 179.172H196.132V185.962H195.208V179.172ZM192.716 179.172H193.654V186.004H192.716V179.172ZM197.742 179.172H198.652V186.004H197.742V179.172ZM200.304 179.172H201.284V186.004H200.304V179.172ZM194.83 187.418L195.796 187.32C195.889 187.731 195.969 188.174 196.034 188.65C196.099 189.126 196.137 189.527 196.146 189.854L195.124 189.994C195.124 189.77 195.11 189.509 195.082 189.21C195.063 188.921 195.031 188.617 194.984 188.3C194.947 187.983 194.895 187.689 194.83 187.418ZM197.686 187.418L198.666 187.236C198.797 187.507 198.923 187.801 199.044 188.118C199.165 188.426 199.273 188.725 199.366 189.014C199.459 189.303 199.529 189.56 199.576 189.784L198.54 190.008C198.475 189.672 198.363 189.261 198.204 188.776C198.045 188.291 197.873 187.838 197.686 187.418ZM200.542 187.32L201.536 186.998C201.769 187.269 202.007 187.572 202.25 187.908C202.493 188.244 202.717 188.575 202.922 188.902C203.137 189.219 203.305 189.509 203.426 189.77L202.39 190.148C202.278 189.896 202.119 189.607 201.914 189.28C201.718 188.953 201.499 188.617 201.256 188.272C201.013 187.927 200.775 187.609 200.542 187.32ZM192.38 187.054L193.388 187.306C193.201 187.829 192.959 188.347 192.66 188.86C192.361 189.373 192.021 189.798 191.638 190.134L190.658 189.728C191.022 189.429 191.358 189.037 191.666 188.552C191.974 188.067 192.212 187.567 192.38 187.054ZM206.912 177.282H207.892V190.106H206.912V177.282ZM204.658 181.944H210.188V182.924H204.658V181.944ZM206.772 182.462L207.402 182.728C207.281 183.213 207.127 183.717 206.94 184.24C206.763 184.753 206.567 185.262 206.352 185.766C206.137 186.27 205.913 186.746 205.68 187.194C205.447 187.633 205.213 188.011 204.98 188.328C204.943 188.225 204.891 188.113 204.826 187.992C204.77 187.871 204.705 187.749 204.63 187.628C204.565 187.497 204.499 187.39 204.434 187.306C204.733 186.942 205.031 186.485 205.33 185.934C205.638 185.383 205.918 184.805 206.17 184.198C206.422 183.582 206.623 183.003 206.772 182.462ZM207.878 183.106C207.953 183.19 208.06 183.325 208.2 183.512C208.349 183.699 208.513 183.909 208.69 184.142C208.877 184.375 209.059 184.609 209.236 184.842C209.413 185.075 209.572 185.29 209.712 185.486C209.852 185.673 209.95 185.813 210.006 185.906L209.306 186.732C209.222 186.545 209.096 186.307 208.928 186.018C208.76 185.719 208.573 185.411 208.368 185.094C208.172 184.767 207.981 184.464 207.794 184.184C207.617 183.904 207.472 183.689 207.36 183.54L207.878 183.106ZM204.756 178.332L205.526 178.122C205.666 178.449 205.787 178.799 205.89 179.172C206.002 179.545 206.1 179.909 206.184 180.264C206.268 180.619 206.324 180.941 206.352 181.23L205.512 181.44C205.503 181.16 205.456 180.843 205.372 180.488C205.297 180.124 205.204 179.755 205.092 179.382C204.989 178.999 204.877 178.649 204.756 178.332ZM209.278 178.08L210.202 178.318C210.09 178.663 209.964 179.032 209.824 179.424C209.693 179.807 209.558 180.18 209.418 180.544C209.287 180.899 209.161 181.211 209.04 181.482L208.354 181.258C208.466 180.978 208.578 180.651 208.69 180.278C208.811 179.895 208.923 179.513 209.026 179.13C209.138 178.738 209.222 178.388 209.278 178.08ZM214.71 177.24H215.718V190.106H214.71V177.24ZM210.16 186.158L217.356 184.856L217.524 185.822L210.342 187.124L210.16 186.158ZM211.224 178.962L211.756 178.234C212.027 178.393 212.302 178.575 212.582 178.78C212.871 178.976 213.142 179.177 213.394 179.382C213.646 179.587 213.847 179.779 213.996 179.956L213.436 180.754C213.296 180.577 213.1 180.381 212.848 180.166C212.605 179.951 212.339 179.737 212.05 179.522C211.77 179.307 211.495 179.121 211.224 178.962ZM210.51 182.49L211 181.748C211.28 181.888 211.569 182.051 211.868 182.238C212.167 182.415 212.451 182.602 212.722 182.798C212.993 182.985 213.207 183.162 213.366 183.33L212.848 184.17C212.68 184.002 212.465 183.82 212.204 183.624C211.943 183.419 211.663 183.218 211.364 183.022C211.075 182.817 210.79 182.639 210.51 182.49Z" fill="#6A7282"/>
<path d="M150 2.39609e-05C232.843 2.03397e-05 300 67.1573 300 150C300 232.843 232.843 300 150 300C67.1578 300 0.000485346 232.843 0.000481725 150C0.000478103 67.1573 67.1578 2.7582e-05 150 2.39609e-05ZM150 258C209.647 258 258 209.647 258 150C258 90.3533 209.647 42 150 42C90.3537 42 42.0005 90.3533 42.0005 150C42.0005 209.647 90.3537 258 150 258Z" fill="#A8D0FF"/>
<path d="M4.78308 187.576C-4.46884 151.821 -0.204789 113.91 16.7585 81.104C33.7218 48.2977 62.1918 22.9028 96.7154 9.78318C131.239 -3.33639 169.389 -3.25826 203.859 10.0026C238.328 23.2635 266.694 48.7749 283.523 81.6503C300.352 114.526 304.46 152.454 295.062 188.171C285.664 223.887 263.419 254.881 232.589 275.216C201.759 295.551 164.51 303.797 127.978 298.375C91.4458 292.952 58.1981 274.243 34.6031 245.83L66.9143 218.998C83.9027 239.455 107.841 252.926 134.144 256.83C160.447 260.734 187.266 254.797 209.464 240.156C231.662 225.515 247.678 203.199 254.445 177.483C261.212 151.767 258.253 124.459 246.137 100.788C234.02 77.1179 213.597 58.7497 188.778 49.2019C163.96 39.654 136.492 39.5978 111.635 49.0439C86.7781 58.49 66.2797 76.7743 54.0662 100.395C41.8526 124.015 38.7825 151.311 45.4439 177.055L4.78308 187.576Z" fill="#5F6973"/>
<path d="M150 2.39609e-05C175.266 2.28565e-05 200.123 6.38209 222.264 18.554C244.404 30.7259 263.112 48.2933 276.65 69.626C290.188 90.9587 298.118 115.365 299.704 140.581C301.291 165.797 296.482 191.006 285.725 213.867C274.967 236.728 258.609 256.502 238.168 271.353C217.728 286.203 193.867 295.651 168.8 298.817C143.734 301.984 118.273 298.767 94.7818 289.466C71.2902 280.165 50.5285 265.081 34.4235 245.614L66.785 218.842C78.3807 232.859 93.329 243.719 110.243 250.416C127.157 257.113 145.488 259.428 163.536 257.148C181.584 254.868 198.764 248.066 213.481 237.374C228.198 226.681 239.976 212.444 247.722 195.984C255.467 179.524 258.93 161.374 257.787 143.219C256.645 125.063 250.935 107.49 241.188 92.1307C231.44 76.7712 217.971 64.1227 202.03 55.3589C186.089 46.5951 168.192 42 150 42L150 2.39609e-05Z" fill="#0080D0"/>
</svg>
