<svg width="32" height="32" viewBox="0 0 32 32" fill="none" xmlns="http://www.w3.org/2000/svg">
<path d="M25.6663 8.00006C25.6663 7.91167 25.6312 7.82722 25.5687 7.76471C25.5062 7.7022 25.4217 7.66705 25.3333 7.66705C22.3456 7.66705 18.8034 5.93168 16.3597 3.79694C16.259 3.71253 16.1318 3.66615 16.0003 3.66608C15.8684 3.66608 15.7399 3.71206 15.639 3.79694C13.2096 5.91728 9.65455 7.66705 6.66634 7.66705C6.57805 7.66714 6.49342 7.70227 6.43098 7.76471C6.36859 7.8272 6.33333 7.91175 6.33333 8.00006V17.3331C6.33333 20.4023 7.39609 22.653 9.07747 24.3751C10.786 26.1247 13.1787 27.3727 15.8861 28.3077C15.8936 28.3103 15.902 28.3137 15.9095 28.3165C15.9812 28.343 16.0597 28.3439 16.1322 28.3194C18.8307 27.378 21.2183 26.1272 22.9241 24.377C24.6044 22.653 25.6663 20.4022 25.6663 17.3331V8.00006ZM27.6663 17.3331C27.6663 20.9305 26.3954 23.6799 24.3558 25.7725C22.3433 27.8373 19.6274 29.2194 16.7825 30.211L16.7747 30.2139C16.274 30.3836 15.7306 30.3767 15.2337 30.1973V30.1983C12.3814 29.2133 9.66056 27.835 7.64583 25.7715C5.60408 23.6803 4.33333 20.9303 4.33333 17.3331V8.00006C4.33333 7.38122 4.57934 6.78726 5.01692 6.34967C5.4544 5.91235 6.04776 5.66714 6.66634 5.66705C9.00928 5.66705 12.118 4.21804 14.3284 2.28717L14.3372 2.27936C14.8007 1.88346 15.3907 1.66608 16.0003 1.66608C16.5338 1.66614 17.052 1.83269 17.4837 2.13971L17.6624 2.27936L17.6712 2.28717C19.8941 4.23058 22.9896 5.66705 25.3333 5.66705C25.9522 5.66705 26.5461 5.91209 26.9837 6.34967C27.4213 6.78725 27.6663 7.38124 27.6663 8.00006V17.3331Z" fill="white"/>
<path d="M19.293 12.6263C19.6835 12.2358 20.3165 12.2358 20.707 12.6263C21.0976 13.0169 21.0976 13.6499 20.707 14.0404L15.374 19.3734C15.1866 19.5609 14.9321 19.6663 14.667 19.6664C14.4018 19.6664 14.1475 19.5609 13.96 19.3734L11.293 16.7074C10.9025 16.3169 10.9026 15.6839 11.293 15.2933C11.6835 14.9028 12.3165 14.9028 12.707 15.2933L14.666 17.2523L19.293 12.6263Z" fill="white"/>
</svg>
