<svg width="32" height="32" viewBox="0 0 32 32" fill="none" xmlns="http://www.w3.org/2000/svg">
<path d="M20.4613 16.2023C21.005 16.1058 21.5238 16.4681 21.6204 17.0118L23.6409 28.38L23.6419 28.3878C23.6985 28.7225 23.6514 29.0669 23.5072 29.3741C23.363 29.6812 23.1287 29.9373 22.8353 30.1075C22.5417 30.2779 22.2029 30.3545 21.8646 30.3273C21.5405 30.3011 21.2321 30.1798 20.9759 29.9806V29.9816L16.2025 26.3986V26.3976C16.1453 26.3556 16.0753 26.3331 16.0042 26.3331C15.9325 26.3332 15.8625 26.3566 15.805 26.3995L11.0247 29.9806L11.0238 29.9796C10.768 30.1781 10.4604 30.2992 10.137 30.3253C9.79921 30.3526 9.46062 30.2764 9.16732 30.1066C8.87423 29.9368 8.63992 29.6815 8.49544 29.3751C8.35098 29.0686 8.30313 28.725 8.35872 28.3907L8.36067 28.38L10.3792 17.0118C10.4758 16.4682 10.9948 16.1059 11.5384 16.2023C12.0822 16.2988 12.4455 16.8177 12.349 17.3614L10.4788 27.8898L14.6068 24.798H14.6077C15.0109 24.4968 15.501 24.3332 16.0042 24.3331C16.4449 24.3331 16.8755 24.4584 17.2464 24.6915L17.4007 24.798L17.4027 24.7989L21.5218 27.8907L19.6517 17.3614C19.5551 16.8177 19.9175 16.2989 20.4613 16.2023Z" fill="white"/>
<path d="M23 10.6667C23 6.80069 19.866 3.66669 16 3.66669C12.134 3.66669 9 6.80069 9 10.6667C9 14.5327 12.134 17.6667 16 17.6667C19.866 17.6667 23 14.5327 23 10.6667ZM25 10.6667C25 15.6372 20.9706 19.6667 16 19.6667C11.0294 19.6667 7 15.6372 7 10.6667C7 5.69612 11.0294 1.66669 16 1.66669C20.9706 1.66669 25 5.69612 25 10.6667Z" fill="white"/>
</svg>
