<svg width="40" height="40" viewBox="0 0 40 40" fill="none" xmlns="http://www.w3.org/2000/svg">
<g clip-path="url(#clip0_49_2584)">
<g clip-path="url(#clip1_49_2584)">
<rect width="40" height="40" fill="#F0F8FF"/>
<path d="M19.6705 35.373L11.0727 30.7325C15.3616 30.7708 15.3652 20.9268 15.3652 20.9268H23.9776C23.9776 20.9268 23.9812 30.7708 28.2701 30.7325L19.6723 35.373H19.6705Z" fill="#FBDEC1"/>
<path d="M19.7379 40.7769C26.3461 40.7769 32.211 37.6031 35.895 32.6966C32.5371 31.0513 26.9565 28.9269 26.9565 28.9269L25.8287 26.5693L21.2064 28.4642L19.665 31.3993L18.406 28.4642L13.7947 26.5693L12.6669 28.9269C12.6669 28.9269 7.00608 31.0222 3.55713 32.6638C7.23929 37.5903 13.1169 40.7787 19.7397 40.7787L19.7379 40.7769Z" fill="#7AC28C"/>
<path d="M24.178 32.0748C24.178 32.0748 24.1725 32.0748 24.1689 32.0748C24.0687 32.073 23.9739 32.0293 23.9065 31.9546L21.8568 29.6717C21.722 29.5223 21.7347 29.2909 21.8841 29.1579C22.0335 29.0231 22.2649 29.0358 22.3979 29.1852L24.1907 31.1821L26.0054 29.362C26.1475 29.2198 26.3789 29.2198 26.521 29.362C26.6631 29.5041 26.6631 29.7355 26.521 29.8776L24.4349 31.9692C24.3656 32.0384 24.2727 32.0767 24.1762 32.0767L24.178 32.0748Z" fill="white"/>
<path d="M15.5237 32.0757C15.4272 32.0757 15.3342 32.0374 15.265 31.9682L13.0787 29.7746C12.9365 29.6325 12.9365 29.4011 13.0787 29.259C13.2208 29.1168 13.4522 29.1168 13.5943 29.259L15.5091 31.1811L17.3019 29.1843C17.4368 29.0349 17.6663 29.0221 17.8157 29.1569C17.9651 29.2918 17.9779 29.5213 17.8431 29.6707L15.7934 31.9536C15.726 32.0283 15.6312 32.072 15.531 32.0739C15.5274 32.0739 15.5237 32.0739 15.5219 32.0739L15.5237 32.0757Z" fill="white"/>
<path d="M19.6687 27.3419C21.7639 27.3419 23.3964 26.5511 24.3675 25.1008C23.9776 22.9145 23.9758 20.9268 23.9758 20.9268H15.3634C15.3634 20.9268 15.3634 22.9182 14.9717 25.1063C15.9428 26.5529 17.5752 27.3419 19.6687 27.3419Z" fill="#F8C9A4"/>
<path d="M13.1442 17.3075C13.5068 18.9036 13.9404 20.6144 14.283 21.7458C15.0846 24.4004 16.7863 25.8853 19.6668 25.8853C22.5473 25.8853 24.249 24.4004 25.0507 21.7458C25.3914 20.618 25.8287 18.889 26.1949 17.2839C26.1949 17.2839 27.9093 6.46875 19.6705 6.46875C11.4316 6.46875 13.1461 17.3075 13.1461 17.3075H13.1442Z" fill="#FBDEC1"/>
<path d="M13.5997 19.0349C11.4516 18.9456 10.967 16.8103 11.4043 16.1052C12.0219 15.1086 13.1297 15.7335 13.1297 15.7335L13.8639 15.9867L14.0734 19.0731L13.6015 19.033L13.5997 19.0349Z" fill="#FBDEC1"/>
<path d="M25.6665 19.0349C27.8146 18.9456 28.2992 16.8103 27.862 16.1052C27.2443 15.1086 26.1366 15.7335 26.1366 15.7335L25.4023 15.9867L25.1928 19.0731L25.6647 19.033L25.6665 19.0349Z" fill="#FBDEC1"/>
<path d="M12.2078 15.5515C10.3986 6.95005 15.6166 5.48338 15.6166 5.48338C15.6166 5.48338 19.2569 2.39699 23.7079 5.1281C28.0533 7.79544 28.0278 10.9237 27.0676 15.5515C26.5848 15.4804 26.1384 15.7319 26.1384 15.7319C23.8391 15.5387 20.1169 8.90865 19.2624 8.42037C17.9615 7.67519 16.9321 8.772 16.9321 8.772C16.9321 8.772 14.6273 10.4865 13.1279 15.7319C13.1279 15.7319 12.6869 15.4841 12.2078 15.5497V15.5515Z" fill="#416792"/>
</g>
</g>
<defs>
<clipPath id="clip0_49_2584">
<rect width="40" height="40" rx="20" fill="white"/>
</clipPath>
<clipPath id="clip1_49_2584">
<rect width="40" height="40" fill="white"/>
</clipPath>
</defs>
</svg>
