<svg width="23" height="15" viewBox="0 0 23 15" fill="none" xmlns="http://www.w3.org/2000/svg">
<rect width="22.961" height="15" fill="#00A63C"/>
<path d="M22.9571 2.02167C20.6242 2.02167 18.557 2.60425 17.153 3.33345C15.7478 2.60425 13.8105 2.02167 11.4763 2.02167C9.14213 2.02167 7.20423 2.60425 5.80026 3.33345C4.39693 2.60361 2.33291 2.02167 0 2.02167V3.33345C1.37836 3.33345 3.05186 3.59209 4.36684 4.16315C2.94686 5.11065 1.54482 6.54791 1.54482 8.36225C1.54482 10.7592 3.58579 12.5927 5.8009 12.5927C8.01601 12.5927 9.95967 10.7592 9.95967 8.36225C9.95967 6.54791 8.65558 5.11129 7.23688 4.16315C8.5493 3.59209 10.0967 3.33345 11.477 3.33345C12.8572 3.33345 14.404 3.59209 15.7183 4.16315C14.299 5.11129 12.9955 6.54791 12.9955 8.36225C12.9955 10.7592 14.9379 12.5927 17.1537 12.5927C19.3694 12.5927 21.3803 10.7592 21.3803 8.36225C21.3803 6.54791 20.0077 5.11129 18.589 4.16315C19.9027 3.59209 21.5788 3.33345 22.9584 3.33345V2.02167H22.9571ZM14.4206 8.3296C14.4206 6.78735 15.9462 5.5556 17.2426 4.82064C18.5384 5.5556 20.0647 6.78735 20.0647 8.3296C20.0647 10.3162 18.5032 11.2784 17.2426 11.2784C15.9821 11.2784 14.4206 10.3168 14.4206 8.3296ZM5.76953 11.3142C4.51025 11.3142 2.94558 10.3501 2.94558 8.36353C2.94558 6.82256 4.47247 5.59017 5.76953 4.85393C7.06466 5.59017 8.5922 6.82256 8.5922 8.36353C8.5922 10.3501 7.02881 11.3142 5.76953 11.3142Z" fill="white"/>
</svg>
