<svg width="18" height="18" viewBox="0 0 18 18" fill="none" xmlns="http://www.w3.org/2000/svg">
<g opacity="0.9">
<path d="M17.0825 13.8021L10.6875 2.61078C10.5481 2.36474 10.3458 2.16008 10.1015 2.0177C9.85713 1.87531 9.57938 1.80029 9.29657 1.80029C9.01376 1.80029 8.73601 1.87531 8.49166 2.0177C8.2473 2.16008 8.04509 2.36474 7.90565 2.61078L1.51062 13.8021C1.36967 14.0462 1.29577 14.3232 1.29639 14.6051C1.29701 14.8869 1.37215 15.1636 1.51417 15.4071C1.6562 15.6506 1.86006 15.8522 2.10511 15.9915C2.35016 16.1307 2.62768 16.2028 2.90953 16.2002H15.6996C15.9801 16.1999 16.2556 16.1259 16.4984 15.9854C16.7412 15.845 16.9428 15.6431 17.0829 15.4001C17.2231 15.1571 17.2968 14.8816 17.2967 14.6011C17.2966 14.3206 17.2228 14.045 17.0825 13.8021Z" stroke="#9D9FA3" stroke-width="1.35" stroke-linecap="round" stroke-linejoin="round"/>
<path d="M9.30457 6.60791V9.80543" stroke="#9D9FA3" stroke-width="1.35" stroke-linecap="round" stroke-linejoin="round"/>
<path d="M9.30457 13.0029H9.31357" stroke="#9D9FA3" stroke-width="1.35" stroke-linecap="round" stroke-linejoin="round"/>
</g>
</svg>
