<svg width="18" height="18" viewBox="0 0 18 18" fill="none" xmlns="http://www.w3.org/2000/svg">
<g opacity="0.9">
<path d="M9.254 0.899414H8.90219C8.47807 0.899414 8.07132 1.0679 7.77142 1.36779C7.47152 1.66769 7.30304 2.07444 7.30304 2.49857V2.64249C7.30275 2.92292 7.22872 3.19835 7.08838 3.44114C6.94804 3.68392 6.74632 3.88554 6.50346 4.02576L6.15965 4.22565C5.91654 4.366 5.64078 4.4399 5.36007 4.4399C5.07936 4.4399 4.8036 4.366 4.56049 4.22565L4.44056 4.16168C4.0736 3.95001 3.63765 3.89258 3.2284 4.00201C2.81915 4.11145 2.47004 4.3788 2.25772 4.74537L2.08181 5.04921C1.87013 5.41617 1.81271 5.85212 1.92214 6.26137C2.03157 6.67062 2.29892 7.01973 2.6655 7.23205L2.78544 7.31201C3.02713 7.45155 3.2281 7.6519 3.36837 7.89317C3.50864 8.13443 3.58333 8.40821 3.58501 8.68728V9.09507C3.58613 9.37685 3.51277 9.65393 3.37236 9.89825C3.23195 10.1426 3.02947 10.3454 2.78544 10.4863L2.6655 10.5583C2.29892 10.7706 2.03157 11.1197 1.92214 11.529C1.81271 11.9382 1.87013 12.3742 2.08181 12.7411L2.25772 13.045C2.47004 13.4115 2.81915 13.6789 3.2284 13.7883C3.63765 13.8978 4.0736 13.8403 4.44056 13.6287L4.56049 13.5647C4.8036 13.4243 5.07936 13.3504 5.36007 13.3504C5.64078 13.3504 5.91654 13.4243 6.15965 13.5647L6.50346 13.7646C6.74632 13.9048 6.94804 14.1064 7.08838 14.3492C7.22872 14.592 7.30275 14.8674 7.30304 15.1479V15.2918C7.30304 15.7159 7.47152 16.1226 7.77142 16.4225C8.07132 16.7224 8.47807 16.8909 8.90219 16.8909H9.254C9.67813 16.8909 10.0849 16.7224 10.3848 16.4225C10.6847 16.1226 10.8532 15.7159 10.8532 15.2918V15.1479C10.8534 14.8674 10.9275 14.592 11.0678 14.3492C11.2082 14.1064 11.4099 13.9048 11.6527 13.7646L11.9965 13.5647C12.2397 13.4243 12.5154 13.3504 12.7961 13.3504C13.0768 13.3504 13.3526 13.4243 13.5957 13.5647L13.7156 13.6287C14.0826 13.8403 14.5185 13.8978 14.9278 13.7883C15.337 13.6789 15.6862 13.4115 15.8985 13.045L16.0744 12.7331C16.2861 12.3662 16.3435 11.9302 16.2341 11.521C16.1246 11.1117 15.8573 10.7626 15.4907 10.5503L15.3708 10.4863C15.1267 10.3454 14.9242 10.1426 14.7838 9.89825C14.6434 9.65393 14.5701 9.37685 14.5712 9.09507V8.69528C14.5701 8.41349 14.6434 8.13641 14.7838 7.8921C14.9242 7.64778 15.1267 7.44491 15.3708 7.30402L15.4907 7.23205C15.8573 7.01973 16.1246 6.67062 16.2341 6.26137C16.3435 5.85212 16.2861 5.41617 16.0744 5.04921L15.8985 4.74537C15.6862 4.3788 15.337 4.11145 14.9278 4.00201C14.5185 3.89258 14.0826 3.95001 13.7156 4.16168L13.5957 4.22565C13.3526 4.366 13.0768 4.4399 12.7961 4.4399C12.5154 4.4399 12.2397 4.366 11.9965 4.22565L11.6527 4.02576C11.4099 3.88554 11.2082 3.68392 11.0678 3.44114C10.9275 3.19835 10.8534 2.92292 10.8532 2.64249V2.49857C10.8532 2.07444 10.6847 1.66769 10.3848 1.36779C10.0849 1.0679 9.67813 0.899414 9.254 0.899414Z" stroke="#9D9FA3" stroke-width="1.35" stroke-linecap="round" stroke-linejoin="round"/>
<path d="M9.07817 11.294C10.403 11.294 11.4769 10.2201 11.4769 8.89531C11.4769 7.57053 10.403 6.49658 9.07817 6.49658C7.75339 6.49658 6.67944 7.57053 6.67944 8.89531C6.67944 10.2201 7.75339 11.294 9.07817 11.294Z" stroke="#9D9FA3" stroke-width="1.35" stroke-linecap="round" stroke-linejoin="round"/>
</g>
</svg>
