<svg width="24" height="24" viewBox="0 0 24 24" fill="none" xmlns="http://www.w3.org/2000/svg">
<path d="M22.7999 6.6002C22.7999 8.03236 22.231 9.40588 21.2183 10.4186C20.2056 11.4313 18.8321 12.0002 17.3999 12.0002C15.9677 12.0002 14.5942 11.4313 13.5815 10.4186C12.5688 9.40588 11.9999 8.03236 11.9999 6.6002C11.9999 5.16803 12.5688 3.79452 13.5815 2.78182C14.5942 1.76912 15.9677 1.2002 17.3999 1.2002C18.8321 1.2002 20.2056 1.76912 21.2183 2.78182C22.231 3.79452 22.7999 5.16803 22.7999 6.6002ZM17.3999 3.6002C17.2408 3.6002 17.0882 3.66341 16.9756 3.77593C16.8631 3.88845 16.7999 4.04107 16.7999 4.2002V6.6002C16.7999 6.75933 16.8631 6.91194 16.9756 7.02446C17.0882 7.13698 17.2408 7.2002 17.3999 7.2002C17.559 7.2002 17.7116 7.13698 17.8242 7.02446C17.9367 6.91194 17.9999 6.75933 17.9999 6.6002V4.2002C17.9999 4.04107 17.9367 3.88845 17.8242 3.77593C17.7116 3.66341 17.559 3.6002 17.3999 3.6002ZM17.3999 9.7502C17.5988 9.7502 17.7896 9.67118 17.9302 9.53053C18.0709 9.38987 18.1499 9.19911 18.1499 9.0002C18.1499 8.80128 18.0709 8.61052 17.9302 8.46987C17.7896 8.32921 17.5988 8.2502 17.3999 8.2502C17.201 8.2502 17.0102 8.32921 16.8696 8.46987C16.7289 8.61052 16.6499 8.80128 16.6499 9.0002C16.6499 9.19911 16.7289 9.38987 16.8696 9.53053C17.0102 9.67118 17.201 9.7502 17.3999 9.7502ZM20.3999 12.4802V14.7314C20.3999 15.755 19.5551 16.6106 18.4799 16.6106H12.5759L7.4471 20.4002H7.4399V16.6106H5.5199C4.4447 16.6106 3.5999 15.755 3.5999 14.7314V6.6794C3.5999 5.6558 4.4447 4.8002 5.5199 4.8002H11.0483C11.1675 4.381 11.3247 3.981 11.5199 3.6002H5.5199C3.7967 3.6002 2.3999 4.979 2.3999 6.6794V14.7314C2.3999 16.433 3.7967 17.8106 5.5199 17.8106H6.2399V20.4158C6.2399 20.6714 6.3239 20.9198 6.4799 21.125C6.8759 21.6494 7.6283 21.7562 8.1587 21.365L12.9719 17.8106H18.4799C20.2031 17.8106 21.5999 16.4318 21.5999 14.7314V11.6918C21.2298 11.9975 20.8274 12.2618 20.3999 12.4802Z" fill="#2482CD"/>
</svg>
