<svg width="48" height="48" viewBox="0 0 48 48" fill="none" xmlns="http://www.w3.org/2000/svg">
<rect width="48" height="48" rx="12" fill="#DBEAFE"/>
<g opacity="0.9" clip-path="url(#clip0_190_2183)">
<path d="M24.3952 11.3994H23.8479C23.1882 11.3994 22.5555 11.6615 22.089 12.128C21.6224 12.5945 21.3604 13.2272 21.3604 13.887V14.1109C21.3599 14.5471 21.2448 14.9755 21.0265 15.3532C20.8081 15.7309 20.4944 16.0445 20.1166 16.2626L19.5818 16.5736C19.2036 16.7919 18.7746 16.9068 18.338 16.9068C17.9013 16.9068 17.4723 16.7919 17.0942 16.5736L16.9076 16.4741C16.3368 16.1448 15.6587 16.0555 15.022 16.2257C14.3854 16.3959 13.8424 16.8118 13.5121 17.382L13.2385 17.8547C12.9092 18.4255 12.8198 19.1036 12.9901 19.7402C13.1603 20.3768 13.5762 20.9199 14.1464 21.2502L14.333 21.3746C14.7089 21.5916 15.0216 21.9033 15.2398 22.2786C15.458 22.6539 15.5741 23.0798 15.5768 23.5139V24.1482C15.5785 24.5865 15.4644 25.0176 15.246 25.3976C15.0276 25.7776 14.7126 26.0932 14.333 26.3124L14.1464 26.4243C13.5762 26.7546 13.1603 27.2977 12.9901 27.9343C12.8198 28.5709 12.9092 29.249 13.2385 29.8199L13.5121 30.2925C13.8424 30.8627 14.3854 31.2786 15.022 31.4488C15.6587 31.6191 16.3368 31.5297 16.9076 31.2005L17.0942 31.101C17.4723 30.8826 17.9013 30.7677 18.338 30.7677C18.7746 30.7677 19.2036 30.8826 19.5818 31.101L20.1166 31.4119C20.4944 31.63 20.8081 31.9436 21.0265 32.3213C21.2448 32.699 21.3599 33.1274 21.3604 33.5637V33.7875C21.3604 34.4473 21.6224 35.08 22.089 35.5465C22.5555 36.013 23.1882 36.2751 23.8479 36.2751H24.3952C25.0549 36.2751 25.6877 36.013 26.1542 35.5465C26.6207 35.08 26.8828 34.4473 26.8828 33.7875V33.5637C26.8832 33.1274 26.9984 32.699 27.2167 32.3213C27.435 31.9436 27.7488 31.63 28.1266 31.4119L28.6614 31.101C29.0395 30.8826 29.4685 30.7677 29.9052 30.7677C30.3418 30.7677 30.7708 30.8826 31.149 31.101L31.3355 31.2005C31.9063 31.5297 32.5845 31.6191 33.2211 31.4488C33.8577 31.2786 34.4008 30.8627 34.7311 30.2925L35.0047 29.8074C35.334 29.2366 35.4233 28.5585 35.2531 27.9219C35.0828 27.2852 34.667 26.7422 34.0967 26.4119L33.9102 26.3124C33.5305 26.0932 33.2156 25.7776 32.9972 25.3976C32.7787 25.0176 32.6646 24.5865 32.6664 24.1482V23.5263C32.6646 23.088 32.7787 22.657 32.9972 22.2769C33.2156 21.8969 33.5305 21.5813 33.9102 21.3621L34.0967 21.2502C34.667 20.9199 35.0828 20.3768 35.2531 19.7402C35.4233 19.1036 35.334 18.4255 35.0047 17.8547L34.7311 17.382C34.4008 16.8118 33.8577 16.3959 33.2211 16.2257C32.5845 16.0555 31.9063 16.1448 31.3355 16.4741L31.149 16.5736C30.7708 16.7919 30.3418 16.9068 29.9052 16.9068C29.4685 16.9068 29.0395 16.7919 28.6614 16.5736L28.1266 16.2626C27.7488 16.0445 27.435 15.7309 27.2167 15.3532C26.9984 14.9755 26.8832 14.5471 26.8828 14.1109V13.887C26.8828 13.2272 26.6207 12.5945 26.1542 12.128C25.6877 11.6615 25.0549 11.3994 24.3952 11.3994Z" stroke="#2482CD" stroke-width="1.89" stroke-linecap="round" stroke-linejoin="round"/>
<path d="M24.1216 27.5682C26.1824 27.5682 27.853 25.8976 27.853 23.8368C27.853 21.7761 26.1824 20.1055 24.1216 20.1055C22.0608 20.1055 20.3903 21.7761 20.3903 23.8368C20.3903 25.8976 22.0608 27.5682 24.1216 27.5682Z" stroke="#2482CD" stroke-width="1.89" stroke-linecap="round" stroke-linejoin="round"/>
</g>
<defs>
<clipPath id="clip0_190_2183">
<rect width="28" height="28" fill="white" transform="translate(10 10)"/>
</clipPath>
</defs>
</svg>
